<?xml version="1.0" standalone="no"?>
<!DOCTYPE svg PUBLIC "-//W3C//DTD SVG 20010904//EN"
 "http://www.w3.org/TR/2001/REC-SVG-20010904/DTD/svg10.dtd">
<svg version="1.0" xmlns="http://www.w3.org/2000/svg"
 width="1280.000000pt" height="1177.000000pt" viewBox="0 0 1280.000000 1177.000000"
 preserveAspectRatio="xMidYMid meet">
<metadata>
Created by potrace 1.15, written by Peter Selinger 2001-2017
</metadata>
<g transform="translate(0.000000,1177.000000) scale(0.100000,-0.100000)"
fill="#ff9800" stroke="none">
<path d="M4485 11759 c-616 -41 -1248 -205 -2100 -546 -221 -89 -252 -104
-390 -196 -325 -215 -574 -419 -746 -609 -359 -399 -551 -841 -824 -1898 l-66
-255 -59 -610 c-32 -335 -113 -1178 -180 -1873 l-120 -1263 121 -202 122 -202
1 -175 c1 -163 3 -180 28 -248 42 -115 85 -179 198 -293 141 -142 252 -216
640 -426 1637 -890 3540 -1706 5965 -2560 811 -285 1311 -403 1710 -403 259 0
564 62 790 160 28 12 95 38 149 57 321 112 575 319 807 656 49 70 49 70 131
97 46 15 139 50 208 79 452 191 861 435 1139 679 34 30 61 49 61 43 0 -6 14
-26 30 -45 38 -42 100 -65 200 -72 l75 -6 58 91 c183 288 234 477 191 718 -5
24 -2 32 13 37 14 4 33 50 76 179 52 157 56 176 46 207 -13 37 -10 175 18 720
31 613 23 1476 -18 1980 -173 2121 -850 3637 -2034 4552 -81 63 -168 110 -536
294 -937 467 -1798 767 -2784 968 -270 55 -399 78 -860 156 -198 33 -461 78
-585 100 -613 107 -1036 138 -1475 109z"/>
</g>
</svg>
