<?xml version="1.0" standalone="no"?>
<!DOCTYPE svg PUBLIC "-//W3C//DTD SVG 20010904//EN"
 "http://www.w3.org/TR/2001/REC-SVG-20010904/DTD/svg10.dtd">
<svg version="1.0" xmlns="http://www.w3.org/2000/svg"
 width="1280.000000pt" height="1258.000000pt" viewBox="0 0 1280.000000 1258.000000"
 preserveAspectRatio="xMidYMid meet">
<metadata>
Created by potrace 1.15, written by Peter Selinger 2001-2017
</metadata>
<g transform="translate(0.000000,1258.000000) scale(0.100000,-0.100000)"
fill="#ff9800" stroke="none">
<path d="M11602 12558 c13 -4 -4 -6 -37 -3 -33 2 -49 1 -36 -3 20 -6 13 -10
-38 -20 -34 -7 -70 -15 -79 -18 -15 -5 -15 -4 -2 6 12 9 10 10 -10 4 -34 -9
-92 -35 -62 -28 33 8 27 -2 -8 -15 -20 -7 -29 -7 -24 0 11 19 -70 -22 -150
-75 -146 -97 -289 -260 -369 -421 -28 -56 -45 -110 -28 -85 14 19 14 11 0 -28
-6 -18 -15 -30 -19 -27 -10 6 -25 -34 -16 -42 3 -4 6 2 6 12 0 10 3 16 6 12 3
-3 3 -15 -1 -26 -4 -14 -12 -18 -28 -15 -12 2 -56 10 -97 19 -253 50 -555 47
-1290 -12 -243 -20 -406 -27 -595 -27 l-260 -1 -155 39 c-275 68 -772 194
-870 220 -1080 285 -1479 372 -2040 448 -150 20 -640 17 -765 -4 -351 -61
-565 -165 -798 -387 -124 -118 -153 -139 -249 -175 -173 -65 -399 -90 -1068
-117 -151 -6 -306 -15 -345 -19 -122 -16 -117 -18 -148 54 -64 146 -169 288
-294 397 -64 55 -198 142 -238 154 -11 3 1 -5 28 -20 65 -35 60 -41 -7 -8 -30
15 -52 31 -49 36 3 6 1 7 -6 3 -14 -9 -53 2 -46 14 8 13 -53 30 -88 24 -25 -3
-28 -2 -12 5 14 7 15 10 5 10 -8 1 -26 4 -40 6 -22 5 -23 4 -5 -5 18 -9 17
-10 -5 -5 -14 2 -38 5 -55 6 -29 2 -29 2 5 8 30 5 -287 7 -345 1 l-20 -1 20
-10 c15 -7 11 -8 -16 -4 -19 3 -53 -1 -75 -9 -21 -8 -32 -15 -24 -16 8 0 -16
-14 -55 -30 -79 -34 -96 -38 -45 -10 19 11 31 19 25 19 -5 1 -44 -18 -85 -40
-155 -84 -301 -217 -396 -362 -53 -80 -129 -235 -120 -244 3 -4 6 0 6 7 0 7 2
11 5 8 3 -2 -1 -22 -9 -44 -8 -21 -15 -32 -16 -24 -1 8 -8 -3 -16 -24 -8 -22
-12 -56 -9 -75 4 -25 3 -30 -3 -16 -8 16 -10 14 -15 -15 -4 -18 -5 -56 -2 -84
2 -28 1 -41 -3 -28 -4 13 -7 -46 -7 -130 0 -86 3 -138 7 -118 4 23 6 12 3 -30
-3 -47 -1 -58 5 -40 7 19 8 13 5 -25 -3 -31 -2 -43 4 -30 7 17 8 15 14 -12 18
-89 18 -89 8 -68 -12 26 -13 -2 -1 -30 6 -14 9 -15 10 -5 1 16 24 -31 34 -71
3 -13 -3 -6 -14 16 -12 24 -18 30 -14 15 10 -41 80 -180 126 -250 80 -121 214
-249 346 -328 55 -34 79 -42 46 -17 -18 14 -17 15 8 4 15 -7 25 -15 23 -19 -2
-4 12 -14 31 -23 42 -21 59 -22 24 -2 -36 20 -24 18 50 -10 36 -13 58 -24 50
-25 -9 -1 -5 -5 9 -11 13 -5 40 -7 60 -4 28 4 32 3 16 -5 -15 -7 -8 -8 30 -5
28 3 40 1 27 -3 -13 -4 50 -7 139 -7 90 0 150 3 133 7 -18 5 -8 6 26 3 40 -3
50 -2 35 5 -15 8 -10 9 20 5 25 -4 35 -2 27 3 -11 7 -7 11 13 16 15 4 30 5 33
1 3 -3 -3 -5 -14 -6 -10 0 -14 -3 -7 -5 7 -3 53 11 103 31 51 20 94 35 96 33
2 -3 13 -69 24 -149 43 -316 151 -876 251 -1303 104 -449 307 -1231 316 -1222
2 2 -23 104 -56 227 -240 894 -423 1740 -506 2333 -16 115 -16 120 1 133 24
17 28 7 43 -112 68 -525 269 -1460 491 -2280 47 -171 51 -196 44 -250 -4 -33
-7 -80 -6 -105 4 -125 -104 -754 -238 -1385 -81 -380 -124 -603 -150 -775 -30
-199 -85 -590 -119 -850 -50 -379 -60 -448 -71 -530 -13 -84 -145 -1153 -165
-1335 -21 -181 -55 -506 -55 -522 0 -9 15 -13 43 -13 79 0 161 -21 247 -63
109 -54 104 -52 95 -36 -5 8 -4 11 1 6 5 -5 9 -14 9 -19 0 -6 6 -13 14 -16 9
-3 11 0 6 9 -5 8 -4 11 1 6 5 -5 9 -14 9 -19 0 -6 6 -13 14 -16 9 -3 11 0 6 9
-5 8 -4 11 1 6 5 -5 9 -12 9 -15 0 -13 16 -32 27 -32 6 0 5 7 -3 18 -13 15
-12 16 3 3 10 -7 16 -17 13 -21 -5 -8 68 -70 82 -70 4 0 -10 16 -32 36 l-40
36 43 -32 c24 -18 40 -35 37 -38 -7 -7 35 -52 48 -52 6 0 2 10 -9 23 -17 20
-17 20 8 -2 15 -13 25 -27 23 -31 -2 -4 45 -50 105 -103 107 -96 146 -123 99
-69 -24 27 -23 27 8 -2 18 -16 30 -32 28 -37 -3 -4 56 -60 130 -125 131 -114
135 -119 156 -183 74 -224 213 -393 460 -559 348 -233 900 -419 1649 -556 76
-14 145 -25 345 -56 113 -17 249 -34 429 -54 116 -13 182 -20 406 -41 274 -27
434 -24 500 8 30 15 253 5 340 -15 34 -8 111 -12 200 -11 406 5 474 3 510 -15
48 -24 226 -24 290 0 37 14 116 18 465 27 761 20 1337 58 1951 126 122 14 167
20 359 45 39 5 118 16 177 26 l106 16 6 42 c3 22 10 194 16 381 20 648 39
1056 80 1682 41 633 48 747 65 1053 48 888 47 1285 -5 1980 -32 432 -21 929
36 1695 12 163 70 580 73 525 1 -17 -23 -438 -39 -675 -42 -651 -51 -1143 -25
-1526 8 -123 17 -244 20 -269 3 -25 10 -185 16 -357 16 -492 -8 -1128 -91
-2368 -30 -450 -56 -948 -70 -1335 -22 -633 -31 -864 -34 -867 -1 -1 -96 -16
-212 -32 -745 -107 -1567 -169 -2504 -191 l-365 -8 395 4 c741 8 1550 63 2255
154 153 20 439 61 442 64 2 1 16 374 33 866 14 388 39 869 70 1335 6 83 15
222 20 310 6 88 15 232 20 320 13 198 26 443 41 770 15 322 15 1000 0 1225 -6
96 -18 272 -26 390 -25 370 -17 850 25 1500 23 358 31 496 40 695 5 116 11
224 14 240 3 17 10 62 16 100 37 225 71 361 190 740 146 465 196 691 221 982
13 152 7 433 -12 569 -7 47 -9 87 -6 90 3 3 28 -1 54 -10 28 -9 64 -14 84 -11
27 4 30 3 14 -4 -15 -8 -6 -9 35 -6 34 3 44 2 26 -3 -41 -10 310 -7 359 3 32
7 36 9 20 15 -13 5 -5 8 25 7 25 0 61 7 80 16 26 12 28 16 10 12 l-25 -5 25
12 c14 6 51 25 83 40 31 16 57 26 57 23 0 -2 -26 -18 -57 -34 -32 -17 -53 -30
-48 -31 14 0 153 80 207 119 66 49 176 159 223 226 47 68 58 85 52 85 -2 0
-21 -26 -42 -57 -68 -103 -233 -259 -315 -297 -8 -4 -4 1 10 11 154 112 226
185 309 309 57 84 71 103 52 67 -6 -13 -9 -23 -6 -23 6 0 75 136 75 147 -1 5
-12 -12 -25 -37 -32 -59 -32 -46 0 22 14 29 25 46 25 38 1 -8 7 0 15 19 19 42
19 66 0 26 -19 -43 -18 -29 5 40 10 33 20 51 20 40 1 -14 4 -12 11 10 4 16 6
48 4 70 -4 33 -3 36 5 15 7 -19 8 -8 5 40 -2 38 -1 52 3 35 4 -16 7 37 7 118
0 82 -3 138 -7 125 -4 -13 -5 6 -3 42 3 38 1 53 -3 36 -6 -26 -9 -20 -21 44
-7 41 -16 81 -18 90 -4 13 -4 13 7 0 10 -13 11 -12 6 3 -3 10 -6 24 -6 30 0 8
-3 7 -9 -1 -6 -10 -10 -7 -15 11 -3 14 -9 33 -12 44 -5 15 -4 15 5 3 6 -8 11
-10 11 -5 0 14 -20 43 -20 30 -1 -13 -29 36 -29 50 0 6 6 -1 14 -15 17 -30 20
-21 4 14 -7 14 -15 23 -19 21 -5 -3 -11 2 -14 11 -3 9 -2 12 5 8 16 -10 -29
74 -78 145 -66 95 -130 166 -205 227 -66 55 -224 154 -243 154 -5 -1 7 -10 28
-21 52 -27 46 -33 -8 -7 -24 12 -42 25 -40 28 2 4 -7 12 -21 19 -35 16 -44 13
-14 -4 33 -19 21 -19 -21 0 -19 8 -27 15 -19 15 18 2 -48 28 -70 29 -9 0 -8
-4 5 -9 25 -11 -1 -11 -35 0 -21 7 -22 8 -5 10 15 1 12 4 -10 11 -16 5 -52 7
-80 4 -28 -3 -40 -1 -27 3 13 4 -36 7 -108 7 -72 0 -121 -3 -108 -7z m301 -15
c-7 -2 -19 -2 -25 0 -7 3 -2 5 12 5 14 0 19 -2 13 -5z m-6498 -83 c490 -62
871 -144 1835 -395 252 -65 889 -227 1070 -271 146 -36 166 -38 345 -42 176
-3 287 2 740 38 636 51 955 52 1218 4 84 -15 96 -24 79 -51 -6 -9 -23 -8 -72
2 -251 52 -610 48 -1400 -15 -348 -28 -614 -36 -720 -21 -47 7 -274 59 -505
116 -384 95 -521 130 -900 230 -1510 396 -2169 467 -2713 294 -51 -17 -98 -27
-105 -23 -6 4 -9 3 -4 -1 4 -5 -34 -30 -84 -57 -128 -67 -207 -126 -320 -238
-100 -100 -179 -156 -205 -146 -8 3 -13 2 -10 -3 8 -12 -29 -26 -136 -55 -181
-49 -378 -68 -853 -86 -160 -5 -305 -13 -322 -16 -21 -3 -33 -1 -33 7 0 6 -7
8 -17 4 -10 -3 -60 -13 -112 -20 -96 -15 -110 -12 -111 21 0 17 164 32 460 44
725 28 940 56 1130 147 60 29 95 56 180 141 238 237 517 361 900 403 96 10
560 3 665 -11z m5801 -42 c-159 -95 -295 -240 -390 -419 -49 -90 -63 -102 -20
-16 84 168 241 341 394 435 46 29 89 52 94 52 5 0 -30 -23 -78 -52z m-10258
25 c-10 -2 -26 -2 -35 0 -10 3 -2 5 17 5 19 0 27 -2 18 -5z m-111 -19 c-3 -3
-12 -4 -19 -1 -8 3 -5 6 6 6 11 1 17 -2 13 -5z m11465 -52 c7 -7 -12 1 -40 19
-29 17 -52 34 -52 36 0 7 81 -41 92 -55z m-10917 38 c13 -6 15 -9 5 -9 -8 0
-22 4 -30 9 -18 12 -2 12 25 0z m11082 -183 c72 -76 137 -165 167 -227 18 -39
13 -31 -58 79 -28 45 -91 119 -155 181 -58 58 -88 91 -65 73 22 -17 72 -65
111 -106z m-11847 118 c0 -2 -13 -11 -30 -20 -38 -19 -40 -11 -2 9 31 17 32
18 32 11z m1030 -69 c89 -60 225 -202 285 -301 28 -45 5 -19 -52 60 -62 85
-168 188 -245 240 -32 21 -58 40 -58 42 0 5 13 -2 70 -41z m-1120 16 c-134
-92 -260 -225 -338 -357 -56 -95 -66 -109 -41 -55 63 131 197 288 328 384 35
25 66 46 70 45 3 0 -5 -8 -19 -17z m1472 -437 c22 -47 39 -87 37 -89 -2 -2
-23 36 -46 85 -23 49 -39 89 -37 89 3 0 23 -38 46 -85z m-1881 -52 c-12 -20
-14 -14 -5 12 4 9 9 14 11 11 3 -2 0 -13 -6 -23z m-64 -185 c-3 -8 -6 -5 -6 6
-1 11 2 17 5 13 3 -3 4 -12 1 -19z m-20 -100 c-3 -7 -5 -2 -5 12 0 14 2 19 5
13 2 -7 2 -19 0 -25z m12720 -360 c-3 -8 -6 -5 -6 6 -1 11 2 17 5 13 3 -3 4
-12 1 -19z m-12613 -355 c14 -29 24 -53 21 -53 -5 0 -55 95 -55 106 0 12 6 2
34 -53z m119 -185 c67 -89 155 -172 245 -230 67 -44 86 -64 25 -27 -112 68
-237 187 -311 296 -41 61 -65 105 -35 63 10 -14 44 -59 76 -102z m11123 -250
c4 -6 -2 -8 -15 -3 -18 6 -20 3 -16 -22 26 -149 34 -539 15 -708 -26 -232 -81
-470 -186 -805 -159 -509 -192 -637 -177 -690 5 -20 7 -59 3 -86 -5 -44 -6
-40 -13 47 -7 91 -5 105 27 230 20 74 74 258 121 409 171 547 212 751 222
1105 5 189 -1 315 -24 497 -5 44 -4 46 16 41 12 -3 24 -10 27 -15z m131 -14
c-3 -3 -12 -4 -19 -1 -8 3 -5 6 6 6 11 1 17 -2 13 -5z m-119 -104 c0 -16 -3
-11 -9 15 -4 22 -8 51 -7 65 0 16 3 11 9 -15 4 -22 8 -51 7 -65z m569 94 c-3
-3 -12 -4 -19 -1 -8 3 -5 6 6 6 11 1 17 -2 13 -5z m-49 -11 c-10 -2 -26 -2
-35 0 -10 3 -2 5 17 5 19 0 27 -2 18 -5z m-10428 -23 c-19 -11 -39 -19 -45
-19 -5 0 6 8 25 19 19 11 40 19 45 19 6 0 -6 -8 -25 -19z m-70 -30 c-8 -5 -19
-10 -25 -10 -5 0 -3 5 5 10 8 5 20 10 25 10 6 0 3 -5 -5 -10z m-593 -36 c-3
-3 -12 -4 -19 -1 -8 3 -5 6 6 6 11 1 17 -2 13 -5z m10580 -161 c-2 -21 -4 -6
-4 32 0 39 2 55 4 38 2 -18 2 -50 0 -70z m10 -215 c-2 -35 -3 -9 -3 57 0 66 1
94 3 63 2 -32 2 -86 0 -120z m-10 -160 c-2 -18 -4 -6 -4 27 0 33 2 48 4 33 2
-15 2 -42 0 -60z m-10 -125 c-3 -10 -5 -2 -5 17 0 19 2 27 5 18 2 -10 2 -26 0
-35z m-10 -60 c-3 -10 -5 -4 -5 12 0 17 2 24 5 18 2 -7 2 -21 0 -30z m-12 -93
c-4 -23 -9 -39 -11 -37 -3 2 -2 23 2 46 4 23 9 40 11 37 3 -3 2 -23 -2 -46z
m-21 -104 c-3 -21 -8 -35 -11 -32 -2 2 -1 20 3 40 3 21 8 35 11 32 2 -2 1 -20
-3 -40z m-20 -95 c-4 -17 -9 -30 -11 -27 -3 2 -2 19 2 36 9 41 17 33 9 -9z
m-20 -75 c-3 -15 -8 -25 -11 -23 -2 3 -1 17 3 31 3 15 8 25 11 23 2 -3 1 -17
-3 -31z m-20 -80 c-3 -15 -8 -25 -11 -23 -2 3 -1 17 3 31 3 15 8 25 11 23 2
-3 1 -17 -3 -31z m-23 -77 c-5 -13 -10 -19 -10 -12 -1 15 10 45 15 40 3 -2 0
-15 -5 -28z m-17 -63 c-3 -15 -8 -25 -11 -23 -2 3 -1 17 3 31 3 15 8 25 11 23
2 -3 1 -17 -3 -31z m-24 -73 c-11 -17 -11 -17 -6 0 3 10 6 24 7 30 0 9 2 9 5
0 3 -7 0 -20 -6 -30z m-19 -64 c-5 -13 -10 -19 -10 -12 -1 15 10 45 15 40 3
-2 0 -15 -5 -28z m-20 -60 c-5 -13 -10 -19 -10 -12 -1 15 10 45 15 40 3 -2 0
-15 -5 -28z m-21 -66 c-11 -17 -11 -17 -6 0 3 10 6 24 7 30 0 9 2 9 5 0 3 -7
0 -20 -6 -30z m-19 -64 c-5 -13 -10 -19 -10 -12 -1 15 10 45 15 40 3 -2 0 -15
-5 -28z m-20 -60 c-5 -13 -10 -19 -10 -12 -1 15 10 45 15 40 3 -2 0 -15 -5
-28z m-20 -70 c-5 -13 -10 -19 -10 -12 -1 15 10 45 15 40 3 -2 0 -15 -5 -28z
m-17 -63 c-3 -15 -8 -25 -11 -23 -2 3 -1 17 3 31 3 15 8 25 11 23 2 -3 1 -17
-3 -31z m-20 -70 c-3 -15 -8 -25 -11 -23 -2 3 -1 17 3 31 3 15 8 25 11 23 2
-3 1 -17 -3 -31z m-20 -80 c-3 -15 -8 -25 -11 -23 -2 3 -1 17 3 31 3 15 8 25
11 23 2 -3 1 -17 -3 -31z m-17 -68 c-3 -8 -6 -5 -6 6 -1 11 2 17 5 13 3 -3 4
-12 1 -19z m-10 -50 c-3 -7 -5 -2 -5 12 0 14 2 19 5 13 2 -7 2 -19 0 -25z
m-8878 -877 c-40 -280 -90 -546 -199 -1066 -53 -253 -76 -368 -119 -590 -29
-147 -90 -562 -150 -1025 -23 -168 -45 -336 -50 -375 -5 -38 -15 -108 -21
-155 -6 -47 -15 -114 -20 -150 -5 -36 -16 -121 -24 -190 -18 -143 -101 -824
-116 -945 -15 -121 -49 -443 -52 -500 l-3 -50 60 -7 c184 -20 331 -115 763
-497 191 -167 233 -209 242 -239 5 -20 8 -37 6 -39 -1 -2 -13 9 -27 24 -13 15
-16 21 -6 14 18 -14 21 -8 9 20 -7 16 -381 349 -512 455 -209 169 -377 254
-502 254 -24 0 -41 5 -44 14 -15 38 225 1982 361 2921 53 370 81 521 175 970
153 727 247 1264 229 1311 -6 16 -8 15 -14 -11 -11 -49 -16 -53 -10 -10 3 22
5 56 6 75 0 34 1 33 19 -19 18 -52 18 -57 -1 -190z m-34 9 c-4 -28 -9 -49 -12
-47 -2 3 -1 28 3 56 4 28 9 50 11 47 3 -3 2 -28 -2 -56z m-18 -117 c-3 -10 -5
-4 -5 12 0 17 2 24 5 18 2 -7 2 -21 0 -30z m-10 -55 c-3 -7 -5 -2 -5 12 0 14
2 19 5 13 2 -7 2 -19 0 -25z m-13 -87 c-4 -23 -9 -40 -11 -37 -3 3 -2 23 2 46
4 23 9 39 11 37 3 -2 2 -23 -2 -46z m-19 -111 c-4 -23 -9 -39 -11 -37 -3 2 -2
23 2 46 4 23 9 40 11 37 3 -3 2 -23 -2 -46z m-21 -114 c-3 -21 -8 -35 -11 -32
-2 2 -1 20 3 40 3 21 8 35 11 32 2 -2 1 -20 -3 -40z m-20 -100 c-3 -21 -8 -35
-11 -32 -2 2 -1 20 3 40 3 21 8 35 11 32 2 -2 1 -20 -3 -40z m-17 -88 c-3 -7
-5 -2 -5 12 0 14 2 19 5 13 2 -7 2 -19 0 -25z m-10 -40 c-3 -8 -6 -5 -6 6 -1
11 2 17 5 13 3 -3 4 -12 1 -19z m-10 -60 c-3 -8 -6 -5 -6 6 -1 11 2 17 5 13 3
-3 4 -12 1 -19z m-10 -40 c-3 -8 -6 -5 -6 6 -1 11 2 17 5 13 3 -3 4 -12 1 -19z
m-13 -72 c-3 -21 -8 -35 -11 -32 -2 2 -1 20 3 40 3 21 8 35 11 32 2 -2 1 -20
-3 -40z m-17 -78 c-3 -8 -6 -5 -6 6 -1 11 2 17 5 13 3 -3 4 -12 1 -19z m-10
-40 c-3 -8 -6 -5 -6 6 -1 11 2 17 5 13 3 -3 4 -12 1 -19z m-13 -72 c-3 -21 -8
-35 -11 -32 -2 2 -1 20 3 40 3 21 8 35 11 32 2 -2 1 -20 -3 -40z m-17 -78 c-3
-8 -6 -5 -6 6 -1 11 2 17 5 13 3 -3 4 -12 1 -19z m-10 -40 c-3 -8 -6 -5 -6 6
-1 11 2 17 5 13 3 -3 4 -12 1 -19z m-12 -68 c-9 -41 -17 -33 -9 9 4 17 9 30
11 27 3 -2 2 -19 -2 -36z m-20 -100 c-9 -41 -17 -33 -9 9 4 17 9 30 11 27 3
-2 2 -19 -2 -36z m-18 -82 c-3 -8 -6 -5 -6 6 -1 11 2 17 5 13 3 -3 4 -12 1
-19z m-10 -40 c-3 -8 -6 -5 -6 6 -1 11 2 17 5 13 3 -3 4 -12 1 -19z m-13 -72
c-3 -21 -8 -35 -11 -32 -2 2 -1 20 3 40 3 21 8 35 11 32 2 -2 1 -20 -3 -40z
m-17 -98 c-3 -7 -5 -2 -5 12 0 14 2 19 5 13 2 -7 2 -19 0 -25z m-10 -50 c-3
-7 -5 -2 -5 12 0 14 2 19 5 13 2 -7 2 -19 0 -25z m-10 -60 c-3 -7 -5 -2 -5 12
0 14 2 19 5 13 2 -7 2 -19 0 -25z m-10 -50 c-3 -7 -5 -2 -5 12 0 14 2 19 5 13
2 -7 2 -19 0 -25z m-10 -75 c-3 -10 -5 -4 -5 12 0 17 2 24 5 18 2 -7 2 -21 0
-30z m-10 -55 c-3 -7 -5 -2 -5 12 0 14 2 19 5 13 2 -7 2 -19 0 -25z m-12 -98
c-4 -28 -9 -49 -12 -47 -2 3 -1 28 3 56 4 28 9 50 11 47 3 -3 2 -28 -2 -56z
m-20 -140 c-4 -28 -9 -49 -12 -47 -2 3 -1 28 3 56 4 28 9 50 11 47 3 -3 2 -28
-2 -56z m-20 -140 c-4 -28 -9 -49 -12 -47 -2 3 -1 28 3 56 4 28 9 50 11 47 3
-3 2 -28 -2 -56z m-20 -145 c-4 -31 -9 -54 -12 -51 -3 2 -1 30 2 61 4 31 9 54
12 51 3 -2 1 -30 -2 -61z m-18 -132 c-3 -10 -5 -2 -5 17 0 19 2 27 5 18 2 -10
2 -26 0 -35z m-10 -60 c-3 -10 -5 -4 -5 12 0 17 2 24 5 18 2 -7 2 -21 0 -30z
m-10 -90 c-3 -10 -5 -2 -5 17 0 19 2 27 5 18 2 -10 2 -26 0 -35z m-10 -60 c-3
-10 -5 -4 -5 12 0 17 2 24 5 18 2 -7 2 -21 0 -30z m-10 -90 c-3 -10 -5 -2 -5
17 0 19 2 27 5 18 2 -10 2 -26 0 -35z m-10 -60 c-3 -10 -5 -4 -5 12 0 17 2 24
5 18 2 -7 2 -21 0 -30z m-12 -113 c-4 -28 -9 -49 -12 -47 -2 3 -1 28 3 56 4
28 9 50 11 47 3 -3 2 -28 -2 -56z m-20 -150 c-4 -28 -9 -49 -12 -47 -2 3 -1
28 3 56 4 28 9 50 11 47 3 -3 2 -28 -2 -56z m-20 -155 c-4 -31 -9 -54 -12 -51
-3 2 -1 30 2 61 4 31 9 54 12 51 3 -2 1 -30 -2 -61z m-20 -155 c-4 -34 -9 -59
-12 -57 -2 3 -1 33 3 66 4 34 9 60 11 57 3 -3 2 -32 -2 -66z m-20 -160 c-4
-34 -9 -59 -12 -57 -2 3 -1 33 3 66 4 34 9 60 11 57 3 -3 2 -32 -2 -66z m-20
-160 c-4 -34 -9 -59 -12 -57 -2 3 -1 33 3 66 4 34 9 60 11 57 3 -3 2 -32 -2
-66z m-20 -160 c-4 -34 -9 -59 -12 -57 -2 3 -1 33 3 66 4 34 9 60 11 57 3 -3
2 -32 -2 -66z m-20 -165 c-4 -31 -9 -54 -12 -51 -3 2 -1 30 2 61 4 31 9 54 12
51 3 -2 1 -30 -2 -61z m-20 -160 c-4 -31 -9 -54 -12 -51 -3 2 -1 30 2 61 4 31
9 54 12 51 3 -2 1 -30 -2 -61z m-18 -147 c-2 -13 -4 -5 -4 17 -1 22 1 32 4 23
2 -10 2 -28 0 -40z m-10 -75 c-3 -10 -5 -2 -5 17 0 19 2 27 5 18 2 -10 2 -26
0 -35z m-12 -123 c-4 -34 -9 -59 -12 -57 -2 3 -1 33 3 66 4 34 9 60 11 57 3
-3 2 -32 -2 -66z m-18 -162 c-2 -13 -4 -3 -4 22 0 25 2 35 4 23 2 -13 2 -33 0
-45z m-10 -80 c-2 -13 -4 -5 -4 17 -1 22 1 32 4 23 2 -10 2 -28 0 -40z m-10
-113 l-5 -54 51 -4 52 -3 -59 -2 -58 -2 6 31 c3 17 6 44 6 60 0 16 3 29 6 29
4 0 4 -25 1 -55z m198 -86 c79 -30 64 -32 -20 -3 -38 13 -62 24 -53 24 10 0
42 -9 73 -21z m145 -75 c0 -2 -9 0 -20 6 -11 6 -20 13 -20 16 0 2 9 0 20 -6
11 -6 20 -13 20 -16z m350 -269 c19 -19 32 -35 29 -35 -3 0 -20 16 -39 35 -19
19 -32 35 -29 35 3 0 20 -16 39 -35z m80 -70 c19 -19 32 -35 29 -35 -3 0 -20
16 -39 35 -19 19 -32 35 -29 35 3 0 20 -16 39 -35z m165 -145 c21 -22 37 -40
34 -40 -3 0 -23 18 -44 40 -21 22 -37 40 -34 40 3 0 23 -18 44 -40z m85 -75
c19 -19 32 -35 29 -35 -3 0 -20 16 -39 35 -19 19 -32 35 -29 35 3 0 20 -16 39
-35z m211 -239 c100 -250 402 -497 820 -670 381 -157 920 -294 1479 -376 80
-12 177 -28 215 -37 140 -31 163 -34 330 -43 249 -13 364 -26 416 -49 24 -11
64 -23 87 -27 89 -14 29 -14 -134 1 -1078 96 -1858 256 -2441 500 -325 137
-603 338 -732 530 -42 64 -95 174 -116 244 l-8 25 34 -28 c19 -16 41 -47 50
-70z"/>
<path d="M4973 12453 c9 -2 25 -2 35 0 9 3 1 5 -18 5 -19 0 -27 -2 -17 -5z"/>
<path d="M4808 12443 c6 -2 18 -2 25 0 6 3 1 5 -13 5 -14 0 -19 -2 -12 -5z"/>
<path d="M5183 12443 c9 -2 25 -2 35 0 9 3 1 5 -18 5 -19 0 -27 -2 -17 -5z"/>
<path d="M5348 12433 c7 -3 16 -2 19 1 4 3 -2 6 -13 5 -11 0 -14 -3 -6 -6z"/>
<path d="M5418 12423 c7 -3 16 -2 19 1 4 3 -2 6 -13 5 -11 0 -14 -3 -6 -6z"/>
<path d="M5518 12413 c7 -3 16 -2 19 1 4 3 -2 6 -13 5 -11 0 -14 -3 -6 -6z"/>
<path d="M9893 11793 c15 -2 37 -2 50 0 12 2 0 4 -28 4 -27 0 -38 -2 -22 -4z"/>
<path d="M10323 11793 c9 -2 25 -2 35 0 9 3 1 5 -18 5 -19 0 -27 -2 -17 -5z"/>
<path d="M3198 11783 c7 -3 16 -2 19 1 4 3 -2 6 -13 5 -11 0 -14 -3 -6 -6z"/>
<path d="M9763 11783 c9 -2 23 -2 30 0 6 3 -1 5 -18 5 -16 0 -22 -2 -12 -5z"/>
<path d="M10448 11783 c7 -3 16 -2 19 1 4 3 -2 6 -13 5 -11 0 -14 -3 -6 -6z"/>
<path d="M3043 11773 c9 -2 23 -2 30 0 6 3 -1 5 -18 5 -16 0 -22 -2 -12 -5z"/>
<path d="M9563 11773 c9 -2 23 -2 30 0 6 3 -1 5 -18 5 -16 0 -22 -2 -12 -5z"/>
<path d="M2923 11763 c9 -2 23 -2 30 0 6 3 -1 5 -18 5 -16 0 -22 -2 -12 -5z"/>
<path d="M9478 11763 c6 -2 18 -2 25 0 6 3 1 5 -13 5 -14 0 -19 -2 -12 -5z"/>
<path d="M2593 11753 c15 -2 39 -2 55 0 15 2 2 4 -28 4 -30 0 -43 -2 -27 -4z"/>
<path d="M9308 11753 c6 -2 18 -2 25 0 6 3 1 5 -13 5 -14 0 -19 -2 -12 -5z"/>
<path d="M2408 11743 c12 -2 32 -2 45 0 12 2 2 4 -23 4 -25 0 -35 -2 -22 -4z"/>
<path d="M9218 11743 c6 -2 18 -2 25 0 6 3 1 5 -13 5 -14 0 -19 -2 -12 -5z"/>
<path d="M2208 11733 c7 -3 16 -2 19 1 4 3 -2 6 -13 5 -11 0 -14 -3 -6 -6z"/>
<path d="M9053 11733 c9 -2 23 -2 30 0 6 3 -1 5 -18 5 -16 0 -22 -2 -12 -5z"/>
<path d="M2148 11723 c7 -3 16 -2 19 1 4 3 -2 6 -13 5 -11 0 -14 -3 -6 -6z"/>
<path d="M8478 11723 c7 -3 16 -2 19 1 4 3 -2 6 -13 5 -11 0 -14 -3 -6 -6z"/>
<path d="M8943 11723 c9 -2 23 -2 30 0 6 3 -1 5 -18 5 -16 0 -22 -2 -12 -5z"/>
<path d="M5078 193 c7 -3 16 -2 19 1 4 3 -2 6 -13 5 -11 0 -14 -3 -6 -6z"/>
<path d="M5468 143 c6 -2 18 -2 25 0 6 3 1 5 -13 5 -14 0 -19 -2 -12 -5z"/>
<path d="M5598 133 c7 -3 16 -2 19 1 4 3 -2 6 -13 5 -11 0 -14 -3 -6 -6z"/>
<path d="M5678 123 c7 -3 16 -2 19 1 4 3 -2 6 -13 5 -11 0 -14 -3 -6 -6z"/>
<path d="M11478 12543 c7 -3 16 -2 19 1 4 3 -2 6 -13 5 -11 0 -14 -3 -6 -6z"/>
<path d="M11438 12533 c7 -3 16 -2 19 1 4 3 -2 6 -13 5 -11 0 -14 -3 -6 -6z"/>
<path d="M1038 12463 c23 -2 61 -2 85 0 23 2 4 4 -43 4 -47 0 -66 -2 -42 -4z"/>
<path d="M710 12400 c-8 -5 -10 -10 -5 -10 6 0 17 5 25 10 8 5 11 10 5 10 -5
0 -17 -5 -25 -10z"/>
<path d="M12752 11710 c0 -14 2 -19 5 -12 2 6 2 18 0 25 -3 6 -5 1 -5 -13z"/>
<path d="M12761 11664 c0 -11 3 -14 6 -6 3 7 2 16 -1 19 -3 4 -6 -2 -5 -13z"/>
<path d="M41 11034 c0 -11 3 -14 6 -6 3 7 2 16 -1 19 -3 4 -6 -2 -5 -13z"/>
<path d="M11718 10313 c23 -2 61 -2 85 0 23 2 4 4 -43 4 -47 0 -66 -2 -42 -4z"/>
<path d="M1571 10284 c0 -11 3 -14 6 -6 3 7 2 16 -1 19 -3 4 -6 -2 -5 -13z"/>
<path d="M1018 10203 c23 -2 59 -2 80 0 20 2 1 4 -43 4 -44 0 -61 -2 -37 -4z"/>
<path d="M1591 10134 c0 -11 3 -14 6 -6 3 7 2 16 -1 19 -3 4 -6 -2 -5 -13z"/>
<path d="M1611 10004 c0 -11 3 -14 6 -6 3 7 2 16 -1 19 -3 4 -6 -2 -5 -13z"/>
<path d="M10912 7185 c0 -16 2 -22 5 -12 2 9 2 23 0 30 -3 6 -5 -1 -5 -18z"/>
<path d="M10902 7065 c0 -16 2 -22 5 -12 2 9 2 23 0 30 -3 6 -5 -1 -5 -18z"/>
<path d="M10892 6865 c0 -16 2 -22 5 -12 2 9 2 23 0 30 -3 6 -5 -1 -5 -18z"/>
<path d="M10882 6745 c0 -16 2 -22 5 -12 2 9 2 23 0 30 -3 6 -5 -1 -5 -18z"/>
<path d="M10872 6510 c0 -19 2 -27 5 -17 2 9 2 25 0 35 -3 9 -5 1 -5 -18z"/>
<path d="M10863 6330 c0 -30 2 -43 4 -27 2 15 2 39 0 55 -2 15 -4 2 -4 -28z"/>
<path d="M10863 5575 c0 -27 2 -38 4 -22 2 15 2 37 0 50 -2 12 -4 0 -4 -28z"/>
<path d="M10872 5450 c0 -14 2 -19 5 -12 2 6 2 18 0 25 -3 6 -5 1 -5 -13z"/>
<path d="M10882 5275 c0 -16 2 -22 5 -12 2 9 2 23 0 30 -3 6 -5 -1 -5 -18z"/>
<path d="M10892 5170 c0 -14 2 -19 5 -12 2 6 2 18 0 25 -3 6 -5 1 -5 -13z"/>
<path d="M10903 4950 c0 -25 2 -35 4 -22 2 12 2 32 0 45 -2 12 -4 2 -4 -23z"/>
<path d="M10913 4695 c0 -44 2 -61 4 -37 2 23 2 59 0 80 -2 20 -4 1 -4 -43z"/>
<path d="M10914 4370 c0 -91 2 -128 3 -82 2 45 2 119 0 165 -1 45 -3 8 -3 -83z"/>
<path d="M10903 3985 c0 -33 2 -45 4 -27 2 18 2 45 0 60 -2 15 -4 0 -4 -33z"/>
<path d="M10892 3690 c0 -19 2 -27 5 -17 2 9 2 25 0 35 -3 9 -5 1 -5 -18z"/>
<path d="M10883 3535 c0 -22 2 -30 4 -17 2 12 2 30 0 40 -3 9 -5 -1 -4 -23z"/>
<path d="M10872 3295 c0 -16 2 -22 5 -12 2 9 2 23 0 30 -3 6 -5 -1 -5 -18z"/>
<path d="M10862 3175 c0 -16 2 -22 5 -12 2 9 2 23 0 30 -3 6 -5 -1 -5 -18z"/>
<path d="M10852 2970 c0 -14 2 -19 5 -12 2 6 2 18 0 25 -3 6 -5 1 -5 -13z"/>
<path d="M10842 2850 c0 -19 2 -27 5 -17 2 9 2 25 0 35 -3 9 -5 1 -5 -18z"/>
<path d="M10832 2655 c0 -16 2 -22 5 -12 2 9 2 23 0 30 -3 6 -5 -1 -5 -18z"/>
<path d="M10822 2545 c0 -16 2 -22 5 -12 2 9 2 23 0 30 -3 6 -5 -1 -5 -18z"/>
<path d="M10812 2350 c0 -14 2 -19 5 -12 2 6 2 18 0 25 -3 6 -5 1 -5 -13z"/>
<path d="M10802 2235 c0 -16 2 -22 5 -12 2 9 2 23 0 30 -3 6 -5 -1 -5 -18z"/>
<path d="M10792 2025 c0 -16 2 -22 5 -12 2 9 2 23 0 30 -3 6 -5 -1 -5 -18z"/>
<path d="M10782 1900 c0 -19 2 -27 5 -17 2 9 2 25 0 35 -3 9 -5 1 -5 -18z"/>
<path d="M10772 1680 c0 -19 2 -27 5 -17 2 9 2 25 0 35 -3 9 -5 1 -5 -18z"/>
<path d="M10763 1520 c0 -25 2 -35 4 -22 2 12 2 32 0 45 -2 12 -4 2 -4 -23z"/>
<path d="M10752 1240 c0 -19 2 -27 5 -17 2 9 2 25 0 35 -3 9 -5 1 -5 -18z"/>
<path d="M10743 1025 c0 -33 2 -45 4 -27 2 18 2 45 0 60 -2 15 -4 0 -4 -33z"/>
<path d="M10733 635 c0 -27 2 -38 4 -22 2 15 2 37 0 50 -2 12 -4 0 -4 -28z"/>
<path d="M10722 400 c0 -19 2 -27 5 -17 2 9 2 25 0 35 -3 9 -5 1 -5 -18z"/>
<path d="M10428 223 c7 -3 16 -2 19 1 4 3 -2 6 -13 5 -11 0 -14 -3 -6 -6z"/>
<path d="M10178 193 c7 -3 16 -2 19 1 4 3 -2 6 -13 5 -11 0 -14 -3 -6 -6z"/>
<path d="M10108 183 c7 -3 16 -2 19 1 4 3 -2 6 -13 5 -11 0 -14 -3 -6 -6z"/>
<path d="M9998 173 c7 -3 16 -2 19 1 4 3 -2 6 -13 5 -11 0 -14 -3 -6 -6z"/>
<path d="M9938 163 c7 -3 16 -2 19 1 4 3 -2 6 -13 5 -11 0 -14 -3 -6 -6z"/>
<path d="M9808 153 c7 -3 16 -2 19 1 4 3 -2 6 -13 5 -11 0 -14 -3 -6 -6z"/>
<path d="M9728 143 c7 -3 16 -2 19 1 4 3 -2 6 -13 5 -11 0 -14 -3 -6 -6z"/>
<path d="M9588 133 c6 -2 18 -2 25 0 6 3 1 5 -13 5 -14 0 -19 -2 -12 -5z"/>
<path d="M9498 123 c6 -2 18 -2 25 0 6 3 1 5 -13 5 -14 0 -19 -2 -12 -5z"/>
<path d="M9343 113 c9 -2 23 -2 30 0 6 3 -1 5 -18 5 -16 0 -22 -2 -12 -5z"/>
<path d="M9238 103 c6 -2 18 -2 25 0 6 3 1 5 -13 5 -14 0 -19 -2 -12 -5z"/>
<path d="M9053 93 c9 -2 25 -2 35 0 9 3 1 5 -18 5 -19 0 -27 -2 -17 -5z"/>
<path d="M8923 83 c9 -2 25 -2 35 0 9 3 1 5 -18 5 -19 0 -27 -2 -17 -5z"/>
<path d="M6408 73 c12 -2 30 -2 40 0 9 3 -1 5 -23 4 -22 0 -30 -2 -17 -4z"/>
<path d="M8688 73 c12 -2 32 -2 45 0 12 2 2 4 -23 4 -25 0 -35 -2 -22 -4z"/>
<path d="M6553 63 c9 -2 25 -2 35 0 9 3 1 5 -18 5 -19 0 -27 -2 -17 -5z"/>
<path d="M8523 63 c9 -2 25 -2 35 0 9 3 1 5 -18 5 -19 0 -27 -2 -17 -5z"/>
<path d="M8113 53 c20 -2 54 -2 75 0 20 2 3 4 -38 4 -41 0 -58 -2 -37 -4z"/>
<path d="M6410 35 c118 -7 388 -15 600 -18 l385 -5 -345 8 c-190 5 -428 13
-530 19 -102 6 -217 10 -255 10 -39 -1 27 -7 145 -14z"/>
<path d="M7268 43 c12 -2 30 -2 40 0 9 3 -1 5 -23 4 -22 0 -30 -2 -17 -4z"/>
<path d="M7728 43 c23 -2 61 -2 85 0 23 2 4 4 -43 4 -47 0 -66 -2 -42 -4z"/>
</g>
</svg>
