<?xml version="1.0" standalone="no"?>
<!DOCTYPE svg PUBLIC "-//W3C//DTD SVG 20010904//EN"
 "http://www.w3.org/TR/2001/REC-SVG-20010904/DTD/svg10.dtd">
<svg version="1.0" xmlns="http://www.w3.org/2000/svg"
 width="922.000000pt" height="1280.000000pt" viewBox="0 0 922.000000 1280.000000"
 preserveAspectRatio="xMidYMid meet">
<metadata>
Created by potrace 1.15, written by Peter Selinger 2001-2017
</metadata>
<g transform="translate(0.000000,1280.000000) scale(0.100000,-0.100000)"
fill="#ff9800" stroke="none">
<path d="M4601 12781 c-96 -34 -149 -113 -135 -201 4 -19 15 -63 26 -98 22
-70 19 -92 -13 -92 -11 0 -46 -23 -77 -51 -104 -93 -213 -131 -457 -159 -107
-13 -175 -29 -222 -53 -47 -25 -101 -91 -108 -134 -11 -62 -15 -73 -45 -107
-28 -31 -68 -53 -180 -95 -84 -32 -117 -56 -140 -100 -25 -50 -25 -94 0 -150
30 -65 27 -117 -10 -151 -42 -39 -174 -105 -390 -195 -205 -85 -277 -124 -490
-262 -324 -213 -591 -433 -916 -758 -132 -132 -289 -298 -350 -369 -438 -514
-760 -1082 -910 -1603 -96 -334 -184 -727 -184 -822 0 -20 5 -42 12 -49 8 -8
54 -12 138 -12 198 -1 233 -16 327 -142 70 -93 88 -103 145 -83 85 29 142 13
244 -73 81 -68 154 -102 220 -102 40 0 69 9 145 47 94 47 94 47 179 43 325
-17 515 16 739 129 71 37 133 40 189 12 21 -11 92 -78 160 -149 67 -72 138
-137 158 -147 74 -35 144 0 305 151 54 50 113 97 130 105 32 13 33 12 63 -26
177 -223 332 -338 512 -381 95 -22 216 -14 387 26 121 29 143 31 177 21 139
-41 126 -288 -36 -685 -36 -89 -92 -226 -124 -306 -109 -266 -147 -466 -137
-718 10 -257 60 -428 227 -772 149 -306 155 -332 154 -585 -4 -523 -126 -1126
-327 -1615 -155 -380 -333 -693 -482 -849 -97 -101 -183 -160 -375 -256 -190
-95 -295 -161 -350 -221 -86 -93 -89 -156 -12 -233 104 -104 240 -141 516
-141 186 0 197 -4 271 -100 83 -108 123 -132 355 -211 152 -51 157 -52 275
-53 152 -1 216 18 411 119 181 94 202 100 296 80 265 -59 395 -68 498 -36 34
11 126 58 204 105 79 47 163 93 187 101 24 9 93 20 153 26 186 16 276 44 350
110 69 60 68 137 -3 226 -81 102 -184 191 -510 443 -241 186 -361 307 -508
516 -182 257 -308 523 -397 837 -102 358 -136 644 -136 1133 0 358 -2 344 96
550 107 227 165 458 194 779 23 251 -2 509 -75 780 -59 219 -125 492 -135 562
-7 45 -11 121 -9 168 4 80 6 89 32 111 26 23 32 23 135 17 92 -5 118 -3 187
16 151 42 281 120 421 252 50 48 105 94 122 103 80 41 172 5 300 -118 49 -47
105 -92 124 -100 79 -34 150 20 279 212 165 245 203 279 282 248 23 -9 104
-56 181 -106 76 -49 164 -99 195 -111 146 -55 331 -73 440 -44 29 7 86 33 125
56 259 153 295 155 535 19 65 -37 137 -74 160 -84 39 -15 45 -15 77 0 20 10
61 51 100 100 37 45 71 84 78 86 6 3 95 0 197 -5 l187 -10 78 38 c44 21 102
41 129 44 l50 6 -2 43 c-6 130 -179 811 -286 1127 -203 597 -579 1223 -1081
1800 -127 146 -443 461 -574 573 -259 222 -684 480 -940 571 -62 22 -126 49
-142 61 -43 30 -70 81 -81 152 -19 116 -66 168 -234 258 -98 53 -118 70 -156
137 -39 68 -71 92 -199 147 -58 24 -172 75 -255 113 -82 38 -203 91 -267 118
-91 39 -116 53 -111 65 36 85 45 129 40 196 -3 45 -14 89 -29 120 -20 43 -29
51 -73 66 -65 22 -157 22 -224 -1z"/>
</g>
</svg>
