<?xml version="1.0" standalone="no"?>
<!DOCTYPE svg PUBLIC "-//W3C//DTD SVG 20010904//EN"
 "http://www.w3.org/TR/2001/REC-SVG-20010904/DTD/svg10.dtd">
<svg version="1.0" xmlns="http://www.w3.org/2000/svg"
 width="1280.000000pt" height="966.000000pt" viewBox="0 0 1280.000000 966.000000"
 preserveAspectRatio="xMidYMid meet">
<metadata>
Created by potrace 1.15, written by Peter Selinger 2001-2017
</metadata>
<g transform="translate(0.000000,966.000000) scale(0.100000,-0.100000)"
fill="#f44336" stroke="none">
<path d="M4423 9653 c-18 -7 -16 -38 2 -57 14 -13 14 -19 1 -50 -15 -37 -37
-53 -143 -108 l-62 -32 -25 27 c-19 20 -34 27 -54 25 -25 -3 -27 -7 -28 -47
-1 -40 -6 -48 -72 -110 -52 -47 -86 -91 -123 -156 -28 -49 -56 -97 -63 -105
-7 -8 -18 -30 -26 -47 -7 -18 -16 -33 -20 -33 -13 0 -20 60 -13 118 l6 56 -31
-23 c-17 -12 -39 -32 -49 -44 -10 -12 -29 -31 -42 -42 l-24 -20 7 34 c3 19 23
55 44 80 33 40 37 52 38 102 0 31 7 71 14 88 7 18 10 34 7 38 -12 11 -85 -46
-118 -92 l-32 -45 -28 32 c-27 32 -28 33 -43 13 -19 -25 -30 -77 -22 -107 3
-13 26 -44 51 -70 44 -44 45 -48 46 -108 1 -33 -1 -64 -4 -67 -3 -3 -20 11
-37 31 -41 46 -200 127 -200 101 0 -2 11 -20 24 -40 14 -20 32 -70 41 -111 23
-99 48 -135 110 -156 l50 -16 3 -58 c2 -33 -6 -100 -18 -157 -12 -54 -19 -101
-16 -104 3 -3 8 8 11 23 19 83 40 147 43 131 2 -10 -6 -50 -18 -89 -24 -80
-22 -101 4 -33 21 54 45 183 46 243 0 33 4 42 17 42 15 0 15 1 -2 13 -12 10
-14 16 -7 21 7 4 17 4 22 1 6 -3 10 0 10 8 0 8 9 22 20 32 20 18 20 18 15 -43
-6 -58 -37 -163 -84 -280 -12 -29 -17 -51 -12 -47 6 3 29 55 53 116 23 61 44
106 46 100 2 -6 -6 -35 -17 -65 -11 -29 -17 -56 -14 -60 6 -6 -101 -191 -117
-201 -6 -3 -10 -10 -10 -15 0 -5 21 11 46 35 25 25 51 45 57 45 12 0 12 -1
-73 -76 -30 -26 -50 -42 -43 -35 6 7 9 20 6 28 -3 7 3 23 12 33 10 11 15 23
11 28 -4 4 -14 -2 -22 -12 -19 -26 -29 -14 -13 16 11 21 11 22 -4 9 -10 -7
-17 -19 -17 -27 0 -7 -4 -16 -10 -19 -6 -4 -10 11 -9 37 0 24 3 37 6 31 2 -7
9 -13 13 -13 11 0 -16 93 -41 142 -35 68 -76 105 -150 134 -38 15 -68 32 -66
38 2 6 23 18 48 26 24 8 46 16 48 17 9 6 -32 41 -68 57 -38 17 -38 17 -106
-13 -79 -36 -93 -39 -47 -10 40 26 40 36 3 44 -29 6 -133 -23 -175 -50 -11 -7
-46 -16 -76 -20 -78 -10 -118 -29 -125 -58 -5 -18 -25 -34 -71 -58 -35 -17
-83 -52 -105 -76 -39 -43 -44 -68 -11 -59 10 2 27 7 40 11 34 10 27 -15 -18
-62 -36 -38 -40 -48 -46 -111 -9 -100 0 -133 53 -192 63 -70 105 -90 191 -90
94 0 165 36 255 130 64 67 67 72 67 120 0 27 -7 70 -16 96 -17 51 -12 94 11
94 8 0 15 -4 15 -10 0 -16 44 -11 95 11 45 20 83 21 131 2 11 -4 14 4 14 36 0
31 3 39 15 35 8 -3 17 -16 21 -27 4 -12 15 -30 25 -40 48 -46 65 -207 27 -267
l-22 -35 -6 43 c-4 23 -16 55 -27 70 -26 35 -90 72 -127 72 -29 0 -29 0 -11
-21 21 -22 23 -58 10 -157 -8 -60 -7 -64 20 -92 27 -28 27 -30 12 -53 -39 -60
-243 -186 -390 -242 -106 -39 -327 -103 -327 -94 0 5 -42 9 -92 9 -51 1 -122
7 -158 15 l-65 14 55 -4 c159 -14 194 -15 175 -7 -11 5 -120 19 -242 32 -122
13 -220 26 -218 30 2 4 63 10 136 13 163 8 191 20 234 97 37 66 62 75 100 34
14 -15 25 -33 25 -40 0 -23 25 -16 141 41 105 52 116 55 175 52 61 -4 104 -17
53 -17 l-23 0 22 -16 c26 -18 29 -44 5 -45 -12 0 -13 -2 -5 -6 7 -3 21 2 32
12 22 20 39 2 20 -20 -19 -22 -42 -18 -86 15 -40 30 -78 37 -143 24 -45 -9
-38 -21 14 -21 51 0 68 -10 42 -24 -26 -15 -21 -27 14 -31 29 -3 28 -5 -39
-40 -72 -39 -87 -45 -77 -28 8 13 9 13 -58 -14 -77 -31 -82 -40 -18 -33 50 6
188 64 236 101 20 14 19 15 -10 26 -21 8 -26 13 -16 19 8 5 10 14 7 20 -4 6
-4 11 1 11 13 -1 53 -37 53 -48 0 -10 37 -8 98 4 36 7 30 58 -13 101 -35 35
-37 36 -103 31 -48 -4 -99 -18 -181 -52 l-115 -46 -29 35 c-24 29 -35 35 -68
35 -36 0 -40 -3 -64 -49 -45 -90 -88 -107 -292 -114 -116 -5 -164 3 -107 17
14 4 56 25 92 48 88 54 109 64 160 79 34 10 66 35 142 110 83 83 95 99 79 104
-26 8 -81 -10 -151 -51 -41 -23 -58 -29 -58 -19 0 7 13 23 29 34 19 14 34 38
45 76 l18 55 -26 45 c-21 35 -25 49 -16 64 24 45 -8 59 -36 16 -19 -29 -32
-31 -49 -8 -18 25 -33 8 -55 -65 -24 -75 -22 -100 16 -193 20 -50 23 -67 15
-86 -16 -35 -44 -28 -69 16 -16 28 -34 43 -66 55 -43 17 -46 16 -86 -4 -39
-20 -60 -20 -60 1 0 21 -47 72 -90 97 -37 22 -57 27 -120 27 -59 0 -85 6 -119
24 -44 23 -46 23 -98 7 -72 -23 -153 -99 -194 -182 -39 -79 -43 -150 -11 -239
11 -33 19 -61 17 -63 -2 -2 -22 32 -44 75 -22 43 -52 90 -66 105 -36 39 -131
98 -157 98 -36 0 -173 -40 -207 -61 -35 -21 -61 -71 -61 -119 0 -49 -15 -67
-83 -99 -77 -37 -91 -59 -85 -138 5 -78 39 -142 117 -225 52 -56 60 -68 42
-68 -12 0 -21 -6 -21 -15 0 -15 60 -31 83 -22 8 3 19 2 25 -2 7 -4 -7 -20 -36
-41 -25 -19 -60 -57 -77 -84 -28 -47 -30 -55 -30 -150 0 -79 4 -108 18 -134
10 -19 17 -35 15 -37 -2 -2 -23 0 -47 5 -65 12 -102 -3 -150 -60 l-42 -50 -88
7 -87 6 -31 -38 c-35 -42 -63 -130 -62 -196 0 -24 8 -75 18 -112 l18 -68 -24
6 c-15 3 -23 1 -23 -8 0 -16 47 -61 75 -72 15 -6 3 -10 -45 -16 -123 -13 -186
-57 -241 -166 -29 -57 -34 -77 -33 -133 0 -53 6 -76 32 -124 28 -51 32 -67 32
-138 0 -86 11 -116 57 -160 52 -50 119 -72 213 -73 l86 0 -11 -30 c-5 -16 -14
-36 -18 -42 -5 -9 -3 -13 7 -13 9 0 16 4 16 9 0 5 11 11 24 13 22 4 23 2 19
-33 -8 -57 5 -124 32 -163 l24 -36 -32 -14 c-39 -16 -82 -61 -96 -99 -6 -16
-11 -55 -11 -87 l0 -58 -53 -30 c-49 -28 -56 -36 -78 -94 -56 -149 -3 -270
127 -292 64 -11 75 -24 26 -32 -56 -9 -64 -24 -13 -24 23 0 41 -3 41 -8 0 -4
-20 -18 -44 -30 -99 -53 -156 -143 -156 -248 0 -59 2 -63 40 -97 21 -20 61
-47 87 -61 44 -22 50 -29 73 -92 57 -157 171 -195 308 -103 l44 30 -7 -43 c-4
-24 -15 -55 -26 -70 -10 -15 -19 -35 -19 -45 0 -24 -107 -133 -130 -133 -10 0
-28 -8 -40 -18 l-23 -18 32 -37 32 -36 -30 -30 c-16 -16 -27 -32 -24 -35 3 -3
-5 -21 -18 -40 -18 -26 -33 -37 -61 -41 -28 -5 -38 -12 -38 -26 0 -25 57 -88
86 -95 17 -4 24 -13 24 -30 0 -12 5 -46 11 -74 22 -103 148 -230 229 -230 44
0 60 14 60 56 0 36 -13 50 -55 59 -58 13 -62 16 -74 41 -8 18 -8 31 -1 45 12
22 21 24 38 7 12 -12 116 -48 139 -48 7 0 -4 33 -28 83 -36 75 -39 87 -33 137
4 30 9 59 12 64 3 5 22 -33 42 -85 46 -118 98 -223 150 -299 39 -58 208 -247
290 -325 23 -22 48 -56 56 -75 16 -37 203 -222 216 -214 12 8 9 65 -7 107 -11
34 -11 38 2 33 8 -3 24 -1 35 5 14 8 28 7 49 -2 39 -16 48 -5 12 16 l-28 16
28 -4 c15 -2 27 0 27 4 0 5 -11 9 -24 9 -40 0 -39 18 1 29 39 11 57 6 33 -9
-13 -8 -13 -10 1 -10 26 0 132 68 167 107 31 35 53 92 67 176 3 20 10 37 15
37 5 0 21 -20 36 -45 14 -25 31 -44 38 -42 6 2 17 27 25 56 13 48 13 55 -4 84
-10 18 -31 47 -47 65 -39 45 -35 53 6 13 28 -27 34 -30 40 -16 11 30 -13 91
-60 155 -25 35 -52 84 -60 110 -18 60 -49 100 -78 100 -16 0 -38 18 -70 59
-52 64 -111 111 -140 111 -14 0 -17 -5 -11 -23 3 -12 9 -33 12 -46 l6 -24 -58
31 c-64 35 -101 39 -187 21 -42 -9 -62 -20 -97 -56 -75 -78 -96 -155 -70 -257
14 -56 90 -151 143 -178 22 -11 54 -31 69 -44 16 -13 38 -24 49 -24 34 0 131
32 158 52 22 16 31 17 55 8 21 -8 25 -14 17 -22 -19 -19 -14 -45 20 -93 26
-37 32 -54 31 -95 -1 -53 2 -55 41 -40 17 6 27 6 32 -1 7 -12 -24 -49 -41 -49
-7 0 -15 -8 -18 -19 -2 -11 -33 -33 -73 -52 -54 -27 -81 -34 -126 -34 -79 0
-92 16 -34 44 25 13 54 37 65 54 25 42 36 100 22 124 -6 10 -11 12 -11 6 0
-25 -58 -43 -135 -43 -78 0 -93 -7 -121 -56 -11 -18 -13 -18 -47 -2 -56 27
-188 159 -258 257 -86 123 -201 338 -204 381 -1 19 -7 64 -13 100 -7 36 -11
97 -11 135 l2 70 8 -90 c9 -104 18 -159 25 -152 6 5 -33 463 -41 485 -2 6 0
12 5 12 6 0 10 -2 10 -4 0 -1 14 -58 30 -125 42 -170 56 -194 125 -220 31 -12
60 -21 64 -21 17 0 33 -29 26 -49 -3 -11 -19 -33 -36 -48 -16 -15 -29 -31 -29
-35 0 -3 29 -42 64 -87 93 -116 103 -137 103 -201 0 -41 -2 -49 -7 -30 -7 22
-8 23 -9 4 -1 -30 -29 -53 -41 -34 -5 8 -12 11 -17 7 -7 -7 8 -22 31 -30 5 -2
6 -9 2 -15 -5 -9 -13 -9 -27 -2 -23 13 -25 54 -4 90 20 35 18 99 -5 140 l-20
35 7 -57 c4 -37 2 -58 -5 -58 -5 0 -12 7 -16 15 -11 29 -28 16 -21 -15 9 -43
-4 -37 -50 22 -53 69 -73 97 -55 80 30 -27 28 -10 -3 32 -17 24 -37 52 -44 62
-11 18 -12 18 -12 -1 0 -11 8 -38 18 -60 21 -46 136 -195 151 -195 6 0 10 11
10 25 0 14 5 25 10 25 6 0 10 -5 10 -11 0 -8 6 -7 17 2 14 12 14 10 -2 -21
-10 -19 -22 -38 -27 -41 -5 -3 -1 -28 9 -55 22 -59 46 -67 91 -29 67 56 53
136 -52 295 l-72 108 28 31 c19 21 28 42 28 65 0 39 -14 53 -61 62 -85 16
-129 73 -153 195 -8 41 -22 94 -30 118 -9 25 -13 48 -9 52 10 10 164 -161 176
-193 13 -35 66 -86 132 -125 33 -20 73 -47 88 -60 16 -13 33 -23 38 -23 23 0
-4 74 -44 117 -11 13 -17 26 -13 30 4 4 36 6 71 5 59 -1 68 1 99 28 24 22 44
30 71 30 30 0 36 3 31 16 -4 10 6 30 28 55 49 54 69 129 64 239 -5 107 -32
160 -114 221 -30 23 -53 43 -51 46 2 2 41 -18 87 -44 65 -37 95 -48 140 -51
l56 -4 669 -1135 c369 -625 670 -1141 670 -1147 0 -6 -16 -10 -38 -10 -35 1
-46 9 -100 69 -82 90 -82 91 -62 129 24 44 17 81 -15 80 -14 -1 -32 -4 -41 -8
-10 -4 -40 12 -89 48 -56 41 -106 66 -200 101 -69 26 -136 49 -150 52 -53 10
-56 14 -28 29 15 8 55 17 89 21 l62 6 -31 26 c-16 14 -50 40 -74 56 l-43 30
33 3 c22 2 48 -5 77 -22 46 -27 96 -33 140 -16 18 7 39 7 61 1 21 -6 36 -6 40
0 9 15 -56 70 -114 97 l-54 24 29 30 c27 29 27 30 9 44 -23 16 -89 19 -116 4
-19 -10 -80 -94 -80 -109 0 -10 -78 -31 -114 -31 -32 0 -32 3 0 45 29 38 64
140 64 186 0 36 -6 36 -32 4 -11 -14 -60 -46 -108 -70 -100 -50 -130 -81 -130
-134 0 -72 -9 -76 -187 -80 -162 -3 -189 -19 -38 -21 49 0 74 -4 65 -9 -8 -5
-50 -6 -92 -2 -53 4 -74 3 -67 -4 12 -12 339 -14 339 -2 0 5 5 7 11 5 6 -2 10
-7 9 -12 -1 -5 12 -15 29 -22 17 -7 31 -17 31 -22 0 -17 -166 -12 -281 7 -62
11 -115 18 -117 17 -5 -6 123 -35 187 -42 40 -4 58 -10 49 -15 -8 -4 -34 -3
-58 2 -25 6 -53 8 -64 5 -21 -5 -187 48 -221 71 -27 18 -44 17 -19 -2 10 -8
14 -15 7 -15 -6 0 -15 4 -18 10 -3 5 -12 10 -18 10 -7 0 2 -10 18 -22 50 -37
152 -137 180 -178 15 -22 33 -56 40 -77 13 -38 13 -38 -28 -80 -39 -41 -44
-61 -5 -26 16 14 18 14 18 0 0 -9 -4 -27 -10 -41 -6 -16 -6 -26 0 -26 5 0 12
16 16 35 3 19 12 39 20 46 12 10 14 3 14 -41 0 -30 11 -85 26 -129 21 -62 33
-82 66 -108 22 -18 45 -33 50 -33 17 0 -1 128 -28 205 -14 39 -28 84 -31 100
-3 17 -13 39 -23 50 -10 11 -41 58 -70 105 -28 47 -70 104 -92 127 l-41 42 79
-25 c120 -39 256 -74 284 -74 14 0 36 -6 50 -13 15 -8 46 -16 71 -20 47 -6
211 -80 244 -110 11 -10 55 -41 99 -69 l78 -51 -6 -41 c-3 -23 -9 -57 -12 -78
-5 -31 -2 -39 18 -52 27 -18 70 -10 116 20 25 17 26 16 59 -22 50 -59 98 -149
127 -241 25 -81 25 -82 9 -157 -13 -60 -25 -86 -60 -131 -76 -96 -141 -119
-194 -69 -21 20 -42 28 -86 33 -64 7 -66 11 -41 91 24 77 39 103 51 91 20 -20
24 -12 29 64 4 65 2 82 -18 122 -13 25 -24 53 -24 60 0 30 -41 92 -75 113 -58
36 -146 58 -196 50 -62 -10 -81 -20 -74 -37 4 -11 0 -14 -14 -10 -39 10 -121
-109 -121 -175 0 -18 12 -64 25 -103 14 -38 25 -73 25 -77 0 -5 -20 -8 -43 -8
-24 0 -46 -3 -50 -6 -8 -8 57 -99 114 -159 27 -29 56 -71 66 -99 10 -27 24
-51 31 -54 10 -3 10 5 -2 33 -15 35 -22 85 -11 85 14 0 54 -24 50 -31 -8 -13
78 -80 99 -77 15 2 22 -5 28 -31 13 -49 0 -57 -66 -41 -30 7 -61 10 -70 7 -9
-4 -16 -2 -16 3 0 6 -5 10 -12 10 -6 0 -1 -11 12 -25 17 -18 27 -22 36 -14 7
6 19 7 26 3 7 -4 53 -11 102 -14 86 -7 90 -8 123 -43 51 -56 40 -96 -32 -116
-20 -5 -49 -21 -66 -35 -17 -14 -35 -26 -40 -26 -15 0 -10 40 8 71 14 24 23
29 41 24 13 -3 33 -3 45 1 22 7 22 7 2 15 -17 7 -15 9 10 8 17 -1 34 -1 38 0
12 2 -12 41 -26 41 -7 0 -24 6 -38 14 -28 14 -116 21 -246 19 -252 -4 -428
-135 -428 -319 0 -49 5 -68 28 -102 30 -46 38 -112 12 -112 -8 0 -20 10 -26
22 -7 13 -14 18 -16 11 -7 -21 26 -73 48 -73 29 0 59 18 59 35 0 11 12 15 43
15 48 0 67 13 67 47 0 31 -23 39 -52 19 -29 -21 -33 -20 -59 7 -54 56 -73 149
-43 213 21 44 90 107 155 139 94 48 309 93 309 65 0 -5 -6 -10 -14 -10 -8 0
-34 -23 -59 -50 -49 -54 -73 -124 -57 -166 13 -33 48 -54 74 -44 22 8 23 17
11 82 -6 31 -3 43 18 71 27 35 92 76 103 64 4 -4 0 -15 -10 -26 -24 -26 -32
-87 -16 -117 17 -31 22 -30 43 5 10 17 45 43 87 65 38 20 70 42 70 49 1 27 21
40 90 53 116 22 232 83 262 138 7 14 31 45 52 71 26 30 42 61 46 88 4 23 14
74 21 114 10 55 10 80 1 110 -6 21 -20 68 -31 105 -11 36 -36 89 -55 116 -45
62 -46 78 -6 57 16 -8 44 -15 62 -15 31 1 32 1 14 15 -11 8 -32 15 -46 15 -35
0 -105 46 -157 103 -58 63 -54 79 6 25 59 -53 177 -104 198 -86 11 9 17 8 24
-3 11 -18 11 -26 -1 -34 -15 -9 1 -36 19 -30 12 4 128 -185 526 -860 280 -476
512 -865 515 -865 3 1 42 56 87 123 444 662 1138 1240 1978 1648 510 248 997
396 1510 461 111 14 529 14 585 1 l35 -9 12 -119 c6 -65 14 -135 18 -154 6
-31 5 -33 -9 -22 -14 12 -20 11 -37 -5 l-21 -19 24 -5 c14 -4 24 -14 26 -29 2
-13 12 -25 22 -28 16 -4 35 -41 26 -50 -2 -2 -22 2 -44 9 -34 10 -42 18 -47
45 -7 36 -20 43 -30 14 -7 -22 3 -51 18 -51 6 0 18 -7 28 -16 10 -9 33 -19 50
-23 49 -10 45 -26 -13 -58 -54 -31 -138 -113 -138 -135 0 -6 10 -2 23 10 32
30 46 28 17 -3 -13 -14 -29 -24 -34 -22 -35 13 -69 -39 -91 -140 -8 -37 -20
-84 -26 -104 -9 -29 -8 -47 5 -92 9 -30 16 -69 16 -86 0 -66 88 -197 184 -273
47 -37 55 -48 55 -78 1 -24 14 -54 41 -94 22 -33 43 -71 46 -85 13 -63 17 -66
49 -38 27 22 30 32 30 81 0 31 3 56 7 56 11 0 44 -52 56 -89 18 -52 15 -70
-18 -108 -35 -39 -37 -54 -11 -77 24 -22 67 -12 88 21 35 54 31 164 -8 232
-11 18 -18 35 -17 37 11 11 83 -42 161 -120 67 -66 101 -110 126 -159 35 -69
50 -150 37 -201 -9 -37 -62 -94 -110 -118 l-40 -21 -31 36 c-24 29 -33 34 -47
26 -28 -16 -22 -54 13 -83 17 -14 37 -26 45 -26 10 0 13 -7 8 -24 -4 -17 1
-30 17 -45 28 -26 34 -26 70 0 36 25 38 43 4 27 -17 -8 -29 -8 -36 -1 -17 17
9 56 62 91 69 46 94 99 94 207 0 71 -4 88 -34 150 -57 115 -193 233 -341 294
-30 13 -62 30 -71 37 -24 21 -124 27 -139 9 -13 -15 -13 -15 35 -30 8 -2 15
-9 15 -14 0 -6 -7 -8 -15 -5 -31 12 -13 -6 25 -26 37 -19 40 -23 40 -63 0 -59
-12 -75 -33 -43 -10 14 -17 30 -17 35 0 5 -18 31 -40 56 -50 58 -52 88 -7 115
46 28 85 25 167 -14 39 -19 78 -32 85 -30 7 3 18 -3 24 -14 7 -14 17 -18 36
-14 28 5 45 22 22 22 -8 0 -28 7 -43 15 -16 8 -41 15 -55 15 -57 0 -71 35 -34
84 12 16 17 17 30 6 19 -15 98 -5 119 16 16 16 44 18 65 5 10 -7 4 -19 -29
-55 -28 -30 -37 -46 -27 -46 8 0 32 18 53 40 21 22 47 40 59 40 11 0 40 9 64
20 l44 20 106 -69 c58 -38 163 -99 233 -136 l127 -66 24 48 25 48 -127 65
c-144 74 -281 158 -281 171 0 5 -20 22 -45 37 l-45 28 56 54 c79 78 98 119 91
195 -7 75 -23 111 -51 119 -16 5 -18 8 -7 15 41 26 -71 104 -171 119 -96 15
-130 3 -206 -71 -52 -51 -64 -59 -73 -47 -20 30 -119 235 -119 246 0 12 89 54
112 53 7 0 27 -19 43 -42 61 -83 118 -71 130 28 10 75 22 83 140 91 55 4 105
10 110 14 19 12 219 -6 254 -23 19 -9 46 -17 61 -17 15 0 52 -9 84 -20 48 -16
177 -47 316 -75 l34 -8 -50 -18 c-28 -11 -79 -37 -115 -59 -35 -22 -88 -52
-116 -67 -29 -15 -53 -34 -53 -43 -1 -8 -21 -30 -46 -48 -45 -34 -163 -196
-151 -209 4 -3 33 0 64 7 50 11 66 21 113 69 32 32 61 74 70 98 20 58 35 50
33 -17 -2 -53 -1 -54 6 -13 10 57 17 62 35 22 8 -19 15 -27 15 -18 1 9 -6 33
-14 52 -21 52 -19 65 18 99 62 59 192 106 335 121 l43 5 -41 -44 c-28 -31 -40
-52 -40 -74 0 -30 0 -30 28 -16 16 8 64 23 108 34 103 26 129 37 154 62 12 12
91 45 183 76 273 92 377 152 565 322 45 41 82 68 81 61 0 -8 -8 -36 -18 -64
-14 -41 -31 -60 -90 -109 -40 -32 -70 -60 -68 -63 11 -10 142 -32 164 -27 18
5 23 2 23 -14 0 -58 -37 -79 -101 -57 -38 14 -45 14 -66 0 -16 -11 -23 -25
-23 -49 0 -70 81 -94 193 -57 85 29 141 70 174 129 24 43 30 47 62 47 46 0 99
22 112 47 11 20 7 24 -44 59 -6 4 -11 39 -13 78 -2 39 -8 80 -14 91 -9 17 -6
22 27 36 31 13 44 14 71 4 19 -7 66 -11 105 -9 60 3 79 -1 116 -20 77 -40 159
-14 251 79 110 111 145 238 101 364 -32 91 -25 89 29 -10 67 -123 162 -204
240 -204 46 0 161 34 213 63 50 28 66 55 76 127 4 34 13 66 19 72 7 7 42 28
79 48 82 43 95 64 90 146 -6 88 -43 161 -121 241 -36 37 -66 69 -66 70 0 2 9
3 19 3 25 0 35 15 18 28 -14 12 -78 19 -93 10 -5 -4 -16 -3 -23 1 -9 6 -3 14
22 30 49 30 106 95 129 149 28 62 22 217 -10 278 -23 44 -84 104 -107 104 -24
0 -75 51 -121 121 -54 82 -91 102 -184 103 -53 1 -77 -5 -132 -31 -38 -18 -83
-44 -102 -58 -38 -29 -45 -24 -50 30 -4 38 -19 51 -24 21 -2 -10 -12 -28 -22
-38 -17 -18 -17 -18 -23 11 -8 40 -78 115 -131 141 -51 24 -134 27 -178 4 -25
-13 -33 -14 -43 -2 -7 7 -291 420 -632 918 -340 498 -931 1360 -1312 1916
l-692 1011 -57 16 -57 16 -130 200 c-120 186 -133 202 -175 220 -225 97 -295
126 -425 171 -347 119 -652 189 -964 220 -131 13 -419 13 -536 0 -382 -42
-708 -171 -968 -383 -44 -36 -49 -38 -61 -22 -7 10 -22 16 -37 13 -19 -2 -23
-8 -20 -28 9 -61 7 -65 -21 -62 -16 1 -28 -2 -28 -7 0 -6 8 -8 18 -4 11 4 14
3 7 -4 -5 -6 -25 -15 -44 -22 -112 -37 -207 24 -262 168 -21 56 -42 258 -32
304 10 48 14 47 41 -4 38 -72 99 -119 156 -119 50 0 76 22 76 65 0 28 0 28
-50 22 -44 -5 -53 -3 -81 21 -33 27 -59 77 -59 113 0 20 2 19 35 -10 35 -31
80 -40 119 -25 14 5 11 12 -13 39 -25 29 -61 119 -61 154 0 6 -11 16 -25 23
-24 13 -25 19 -30 113 -6 140 -30 213 -89 271 -17 17 -45 48 -62 70 -17 21
-47 44 -65 50 -19 7 -63 24 -99 39 -71 30 -75 31 -202 22 -59 -4 -106 -14
-147 -32 -77 -32 -86 -32 -62 3 24 33 38 82 23 82 -6 0 -21 -24 -35 -53 -15
-33 -41 -67 -68 -89 -52 -42 -106 -71 -122 -65 -7 2 2 11 19 20 35 18 82 69
119 128 29 45 31 62 10 79 -14 12 -14 15 1 31 16 18 16 19 -2 18 -10 0 -25 -3
-31 -6z m337 -133 c0 -5 -15 -10 -32 -9 -31 1 -32 1 -8 9 35 11 40 11 40 0z
m-114 -19 c-3 -5 -20 -11 -37 -13 -29 -5 -30 -4 -14 9 21 14 59 18 51 4z m44
5 c0 -3 -4 -8 -10 -11 -5 -3 -10 -1 -10 4 0 6 5 11 10 11 6 0 10 -2 10 -4z
m165 -15 c3 -5 28 -17 56 -26 39 -13 68 -35 127 -94 42 -42 82 -88 88 -101 23
-51 47 -147 48 -195 1 -44 -18 -111 -35 -125 -4 -3 -16 -24 -28 -47 -18 -36
-41 -64 -41 -50 0 3 20 44 45 91 46 90 52 110 35 136 -8 13 -14 10 -35 -15
l-24 -30 -1 53 c0 39 -5 57 -21 73 -11 11 -28 42 -37 67 -23 69 -95 135 -200
184 -103 49 -157 51 -290 11 -41 -13 -56 -13 -61 -4 -4 6 -15 9 -24 5 -9 -3
-17 -3 -17 0 0 7 95 56 107 56 4 -1 -9 -10 -30 -21 -53 -28 -41 -34 17 -9 31
13 91 24 169 31 67 6 124 13 126 15 7 7 20 4 26 -5z m-671 -86 c10 -16 22 -22
35 -18 26 7 49 -15 43 -42 -2 -15 4 -27 23 -39 53 -35 84 -119 49 -133 -9 -3
-40 1 -68 11 -94 29 -152 21 -207 -30 -14 -14 -36 -27 -49 -29 -30 -6 -80 -54
-136 -132 -44 -62 -53 -80 -33 -67 8 5 8 1 0 -14 -22 -42 -10 -36 14 7 14 24
43 65 65 91 22 26 37 49 35 52 -3 2 10 18 28 34 31 28 31 28 8 2 -30 -35 -13
-37 19 -3 13 14 26 23 28 20 3 -2 -25 -36 -61 -74 -40 -43 -88 -110 -125 -176
-59 -105 -60 -106 -57 -62 2 25 11 59 20 77 20 40 12 52 -9 13 -8 -15 -15 -23
-15 -18 -1 40 214 380 247 392 10 3 38 21 63 38 44 31 58 33 87 9 2 -1 -4 -16
-13 -33 -9 -18 -13 -36 -9 -42 8 -13 54 53 54 78 0 44 -50 57 -93 23 -33 -26
-47 -26 -19 0 12 12 23 28 24 38 1 9 2 24 4 32 1 8 2 18 3 22 2 13 30 -3 45
-27z m551 25 c-3 -5 -16 -10 -28 -10 -18 0 -19 2 -7 10 20 13 43 13 35 0z
m-118 -6 c-3 -3 -12 -4 -19 -1 -8 3 -5 6 6 6 11 1 17 -2 13 -5z m-177 -29 c-7
-8 -18 -15 -24 -15 -6 0 -2 7 8 15 25 19 32 19 16 0z m362 -12 c108 -45 188
-141 188 -225 0 -42 -3 -48 -35 -66 -27 -17 -37 -32 -50 -76 -9 -31 -21 -56
-27 -56 -12 0 -114 54 -142 75 -20 15 -20 15 -1 29 18 13 15 15 -40 32 -33 9
-73 17 -90 17 -62 0 -197 -30 -223 -50 -15 -11 -46 -51 -69 -89 -38 -60 -43
-75 -43 -127 0 -50 3 -60 20 -64 21 -5 28 -23 10 -23 -19 0 19 -57 66 -98 55
-49 103 -59 197 -43 35 6 66 11 70 11 3 0 3 -22 0 -50 -3 -27 -2 -50 2 -50 18
0 191 88 204 103 7 9 19 17 27 17 32 0 114 23 114 32 0 9 -30 6 -80 -8 -8 -2
-22 1 -30 6 -12 7 -12 12 4 29 11 12 24 21 31 21 21 0 96 71 93 88 -4 24 54
29 72 7 12 -15 11 -23 -10 -61 -13 -25 -23 -53 -23 -62 0 -9 -7 -22 -16 -29
-24 -18 1 -16 27 3 14 9 21 22 18 31 -3 8 0 24 8 36 8 12 19 47 26 77 23 100
56 140 116 140 39 0 51 -14 60 -70 4 -25 13 -54 20 -65 18 -26 18 -55 0 -55
-8 0 -28 12 -45 26 -25 21 -29 29 -21 44 6 10 10 29 10 42 0 19 -2 20 -11 8
-8 -11 -9 -7 -5 17 5 33 -2 47 -20 35 -23 -17 -65 -83 -68 -109 -2 -15 -14
-64 -27 -108 -33 -115 -33 -264 1 -358 13 -38 38 -85 56 -105 47 -55 128 -96
190 -97 l51 0 -52 -65 c-28 -36 -67 -86 -85 -112 -18 -27 -35 -48 -36 -48 -2
0 -41 24 -86 54 -447 289 -1102 280 -1792 -25 -60 -27 -106 -45 -100 -40 39
35 166 109 197 114 25 4 72 30 136 76 54 39 103 71 110 71 16 0 14 15 -4 30
-10 8 -36 11 -77 8 l-62 -5 73 69 c76 71 201 141 273 153 37 6 39 4 69 -45 30
-49 53 -65 29 -20 -16 30 -7 34 30 15 18 -9 34 -14 37 -11 3 2 -13 14 -35 25
-23 11 -43 25 -47 31 -8 13 26 13 62 -1 20 -7 52 -7 112 1 73 10 90 16 128 47
23 19 43 39 43 43 0 15 -173 22 -230 9 -30 -6 -71 -12 -90 -14 -19 -1 -51 -9
-70 -18 -19 -9 -72 -30 -117 -47 -45 -17 -98 -42 -118 -55 -20 -14 -38 -25
-41 -25 -3 0 6 20 19 43 42 72 139 269 134 273 -6 7 -32 -35 -57 -94 -13 -29
-24 -51 -26 -49 -13 13 105 273 169 373 31 49 163 191 170 184 3 -3 -23 -36
-58 -73 -66 -68 -155 -192 -155 -214 0 -7 -9 -27 -20 -45 -11 -18 -20 -42 -19
-53 0 -17 2 -16 10 5 6 13 16 31 24 40 7 8 20 34 28 56 13 40 125 202 139 203
4 1 41 35 81 76 81 82 95 87 157 55 47 -24 83 -26 100 -5 13 15 10 92 -5 127
-13 32 113 90 245 113 110 19 132 18 202 -12z m-305 11 c-3 -3 -12 -4 -19 -1
-8 3 -5 6 6 6 11 1 17 -2 13 -5z m-122 -34 c-8 -13 1 -13 26 0 35 19 20 1 -21
-25 -47 -30 -65 -32 -31 -5 13 11 20 20 17 20 -4 0 -4 5 -1 10 3 6 8 10 11 10
3 0 2 -4 -1 -10z m-664 -195 c-11 -25 -25 -45 -30 -45 -25 0 -7 106 28 160 16
24 16 24 19 -23 2 -31 -4 -62 -17 -92z m1459 90 c0 -8 -2 -15 -4 -15 -2 0 -6
7 -10 15 -3 8 -1 15 4 15 6 0 10 -7 10 -15z m-160 -21 c0 -8 -4 -12 -10 -9 -5
3 -10 13 -10 21 0 8 5 12 10 9 6 -3 10 -13 10 -21z m-1410 -50 c28 -50 47
-130 29 -119 -5 4 -21 30 -36 58 -21 43 -27 49 -33 33 -6 -17 -7 -17 -13 -3
-9 23 4 88 16 84 6 -2 22 -25 37 -53z m62 -6 c-3 -40 -7 -56 -13 -47 -12 19
-11 66 1 90 6 10 12 19 13 19 1 0 0 -28 -1 -62z m1408 -100 l0 -63 -50 -28
c-27 -15 -62 -44 -79 -64 -21 -25 -35 -34 -47 -29 -15 6 -15 8 -1 24 8 9 18
28 22 43 4 15 20 33 41 44 19 10 34 21 35 24 6 43 4 49 -10 45 -11 -4 -10 -1
3 8 10 7 31 23 45 35 14 12 29 23 34 23 4 0 7 -28 7 -62z m-397 7 c16 -3 25
-10 21 -16 -6 -10 -26 -8 -71 7 -10 3 -4 -3 13 -14 46 -30 53 -46 18 -40 -16
3 -38 9 -49 13 -18 7 -18 6 3 -14 23 -23 29 -41 12 -41 -5 0 -33 22 -61 49
l-52 50 29 6 c16 4 38 10 49 14 11 5 29 5 40 0 11 -4 33 -10 48 -14z m-895
-89 c3 -79 0 -102 -17 -141 -15 -33 -25 -45 -35 -42 -9 4 -13 1 -10 -6 2 -7
-5 -18 -16 -25 -17 -11 -20 -10 -20 7 0 10 14 62 30 116 35 113 34 111 16 96
-8 -7 -18 -27 -21 -44 -3 -18 -15 -62 -26 -99 -11 -37 -18 -72 -14 -78 3 -5 2
-10 -4 -10 -26 0 -32 157 -7 195 11 16 121 130 121 125 0 0 1 -42 3 -94z m753
38 c49 -53 100 -88 109 -74 5 8 20 -4 49 -42 22 -30 41 -60 41 -66 0 -17 -56
-59 -105 -77 -25 -10 -45 -21 -45 -26 0 -4 19 -19 42 -33 l42 -25 -36 -16
c-21 -8 -52 -15 -70 -15 -85 1 -179 8 -185 14 -3 3 0 6 7 6 14 0 -26 44 -42
46 -5 1 -12 2 -18 3 -5 0 -10 6 -10 12 0 6 6 9 14 6 12 -5 12 0 -1 31 -10 24
-14 57 -11 99 4 57 7 67 43 104 44 45 99 78 131 79 11 0 31 -12 45 -26z m607
-12 c-7 -15 -20 -38 -29 -52 -9 -14 -24 -41 -32 -61 -8 -20 -19 -39 -25 -43
-10 -6 -111 10 -120 19 -10 10 45 58 106 92 35 19 70 46 79 59 20 31 36 21 21
-14z m-357 -33 c31 -21 68 -41 83 -45 14 -3 26 -10 26 -15 0 -17 -29 -21 -61
-10 -42 14 -49 7 -12 -13 l28 -15 -32 -11 c-18 -7 -33 -17 -33 -23 0 -5 -11
-25 -26 -44 -18 -23 -21 -33 -11 -33 18 0 39 24 30 33 -3 4 1 7 10 7 10 0 27
11 39 25 24 28 48 33 48 10 0 -30 -69 -84 -132 -104 -35 -10 -54 -19 -43 -20
11 0 38 6 60 14 48 18 45 17 45 6 0 -5 -20 -18 -45 -30 -39 -18 -52 -20 -84
-11 -67 18 -69 34 -9 68 29 16 64 39 78 50 l25 20 -21 24 c-11 12 -37 47 -57
76 l-37 52 25 0 c28 0 29 3 14 31 -10 19 -9 20 13 8 13 -7 48 -29 79 -50z
m169 42 c0 -5 -7 -14 -15 -21 -13 -10 -15 -9 -15 9 0 12 6 21 15 21 8 0 15 -4
15 -9z m-1397 -100 c33 -31 67 -79 67 -95 0 -2 -17 -3 -38 -1 -47 4 -81 -17
-62 -40 7 -8 16 -12 21 -9 5 3 12 -2 15 -10 9 -22 24 -9 24 20 0 18 5 24 21
24 18 0 20 -4 14 -32 -10 -46 -18 -52 -59 -38 -42 14 -55 34 -86 140 -12 41
-26 79 -31 85 -5 5 -9 14 -9 21 0 19 79 -22 123 -65z m1659 -236 c27 -51 56
-70 106 -70 57 0 68 -21 16 -31 -52 -10 -100 18 -138 79 -30 49 -51 158 -28
143 8 -5 10 -1 6 9 -3 8 -3 27 2 43 6 21 9 8 14 -58 4 -47 14 -99 22 -115z
m-301 156 c-12 -21 -40 -46 -46 -39 -8 8 35 69 45 63 6 -4 7 -13 1 -24z m54
-51 c3 -5 1 -10 -4 -10 -6 0 -11 5 -11 10 0 6 2 10 4 10 3 0 8 -4 11 -10z
m-1205 -47 c-11 -17 -11 -17 -6 0 3 10 7 26 7 35 1 15 2 15 6 0 2 -10 -1 -25
-7 -35z m-655 -15 c-23 -42 -31 -47 -88 -62 -34 -10 -76 -22 -92 -28 -25 -9
-36 -6 -69 13 -34 20 -36 24 -22 34 9 7 42 15 75 18 32 4 75 16 95 28 33 19
117 50 124 44 1 -1 -9 -22 -23 -47z m1825 32 c0 -11 -6 -20 -14 -20 -18 0 -29
16 -21 30 11 18 35 11 35 -10z m-1287 -27 c2 -21 1 -45 -4 -53 -9 -16 -9 -15
-14 48 -4 52 11 56 18 5z m-320 8 c11 -11 -74 -71 -103 -71 -11 0 -34 -7 -50
-15 -16 -8 -36 -12 -44 -9 -9 3 -16 1 -16 -5 0 -6 -5 -11 -11 -11 -22 0 -3 44
32 72 64 52 160 71 192 39z m429 -53 c-7 -7 -12 -8 -12 -2 0 14 12 26 19 19 2
-3 -1 -11 -7 -17z m1075 -42 c-9 -13 -52 -42 -96 -65 -89 -46 -88 -46 -70 37
10 48 12 50 56 61 24 7 53 9 64 6 10 -4 27 -2 36 4 24 13 30 -12 10 -43z
m-1982 -6 c3 -6 -1 -7 -9 -4 -18 7 -21 14 -7 14 6 0 13 -4 16 -10z m451 -15
c15 -14 31 -25 35 -25 12 0 39 -55 39 -80 0 -17 -6 -20 -50 -20 -28 0 -67 -7
-87 -15 -52 -22 -69 -19 -112 20 -43 40 -66 44 -81 16 -19 -37 -6 -84 15 -51
10 17 26 0 20 -21 -4 -12 -1 -21 7 -24 12 -5 16 -49 10 -102 -3 -21 -22 -15
-34 12 -14 32 -28 23 -28 -20 0 -54 -15 -49 -50 18 -18 34 -39 69 -47 78 -18
22 -6 49 23 49 19 0 25 -8 34 -40 15 -56 33 -52 24 6 -9 60 18 122 55 130 49
10 72 24 89 54 18 32 29 37 79 39 21 1 41 -7 59 -24z m1264 12 c43 1 58 -2 45
-7 -24 -10 -136 -13 -159 -4 -31 12 -17 26 17 17 17 -4 61 -7 97 -6z m2505 -7
c280 -24 593 -92 906 -197 l174 -58 -582 -3 c-321 -1 -844 -1 -1164 0 l-581 3
118 62 c215 111 427 169 724 197 81 7 293 5 405 -4z m-4211 -41 c-2 -4 -22 -9
-44 -12 -23 -3 -60 -20 -87 -40 -53 -38 -129 -56 -113 -26 19 34 118 97 175
109 29 6 78 -16 69 -31z m783 4 c-3 -10 -5 -4 -5 12 0 17 2 24 5 18 2 -7 2
-21 0 -30z m-530 11 c8 -21 -9 -31 -66 -39 -59 -8 -93 -29 -84 -52 5 -13 2
-15 -11 -10 -10 4 -35 7 -57 7 -29 0 -39 4 -39 16 0 13 7 15 30 11 16 -4 32
-2 35 3 17 28 110 69 178 79 4 0 10 -6 14 -15z m-190 -9 c8 -22 -6 -33 -17
-15 -13 20 -12 30 0 30 6 0 13 -7 17 -15z m505 -17 c28 -20 106 -163 95 -175
-4 -3 -14 11 -22 32 -26 61 -65 113 -101 134 -35 21 -47 45 -16 34 9 -3 29
-15 44 -25z m-585 -58 c10 -28 15 -30 59 -30 45 0 46 -1 31 -18 -10 -10 -17
-27 -17 -38 -1 -38 -29 -68 -113 -119 l-85 -53 -11 25 c-14 31 -14 123 0 160
14 37 47 73 84 89 40 18 39 18 52 -16z m178 3 c-3 -16 -13 -34 -20 -42 -12
-12 -15 -10 -21 14 -5 21 -2 31 11 42 29 20 38 16 30 -14z m55 -7 c0 -3 -4 -8
-10 -11 -5 -3 -10 -1 -10 4 0 6 5 11 10 11 6 0 10 -2 10 -4z m1230 -5 c0 -5
-15 -20 -34 -35 -29 -22 -45 -26 -98 -26 -36 0 -91 5 -123 11 -32 6 -61 7 -64
2 -3 -4 -13 -8 -21 -9 -8 0 -37 -3 -65 -7 -32 -4 -43 -3 -30 3 11 5 28 9 38 9
11 1 31 10 47 21 15 11 43 19 61 19 19 0 48 4 64 9 38 13 225 15 225 3z
m-1602 -31 c-7 -11 -16 -20 -21 -20 -4 0 -3 9 3 20 6 11 15 20 20 20 6 0 5 -9
-2 -20z m-13 -218 c4 -13 10 -21 14 -20 83 40 160 86 192 115 22 20 41 34 43
32 15 -17 26 -54 26 -83 0 -24 10 -50 29 -77 26 -35 28 -44 19 -71 -14 -39
-108 -85 -194 -94 -60 -6 -62 -6 -103 32 -23 20 -52 56 -64 78 -29 55 -30 155
-2 216 l20 45 6 -75 c3 -41 10 -85 14 -98z m1071 133 c-32 -20 -61 -34 -63
-31 -6 5 97 66 112 66 6 0 -16 -16 -49 -35z m-1145 -42 c-12 -20 -14 -14 -5
12 4 9 9 14 11 11 3 -2 0 -13 -6 -23z m-281 -43 c11 -21 20 -48 20 -59 0 -31
-19 -35 -30 -7 -15 41 -21 31 -14 -23 10 -77 -30 -76 -43 2 -5 31 26 127 41
127 3 0 15 -18 26 -40z m-82 -26 c-6 -23 -20 -46 -30 -53 -31 -19 -24 44 9 75
14 13 27 23 29 22 1 -2 -2 -22 -8 -44z m1141 20 c35 -29 56 -90 46 -134 -7
-33 -41 -80 -58 -80 -8 0 -7 4 1 12 17 17 15 33 -3 18 -20 -16 -19 0 1 29 11
15 13 26 7 30 -15 9 -11 71 5 71 24 0 12 29 -19 44 -29 14 -30 14 -23 -2 8
-19 8 -191 -1 -200 -3 -3 -11 0 -18 7 -8 8 -12 48 -12 121 0 106 1 110 22 110
12 0 35 -12 52 -26z m-266 -14 c4 -16 4 -38 0 -47 -10 -29 -45 -63 -64 -63
-20 0 -65 57 -54 68 4 4 13 -2 21 -12 13 -18 14 -17 14 22 0 31 4 42 15 42 10
0 15 -10 15 -29 0 -17 4 -32 9 -35 11 -7 23 22 15 35 -7 12 5 49 15 49 5 0 11
-13 14 -30z m2407 2 c0 -15 -2 -15 -10 -2 -13 20 -13 33 0 25 6 -3 10 -14 10
-23z m-2933 -54 c-2 -13 -4 -3 -4 22 0 25 2 35 4 23 2 -13 2 -33 0 -45z m939
-16 c-15 -15 -16 -14 -16 10 0 14 6 28 13 31 19 6 21 -23 3 -41z m-48 -44
c-13 -18 -23 -36 -23 -40 0 -4 -10 -15 -22 -23 -32 -22 -29 -12 14 45 41 55
69 70 31 18z m177 18 c18 -13 18 -14 -2 -20 -11 -3 -53 -31 -94 -62 -77 -57
-107 -71 -136 -60 -14 6 -9 14 27 46 25 21 52 37 61 34 8 -2 24 3 35 11 19 16
19 16 -3 10 -35 -10 -36 13 -1 35 38 23 86 26 113 6z m1775 -6 c0 -5 -5 -10
-11 -10 -5 0 -7 5 -4 10 3 6 8 10 11 10 2 0 4 -4 4 -10z m-3160 -54 c0 -46
-17 -48 -34 -5 -14 34 -15 44 -4 50 16 11 38 -16 38 -45z m124 -53 c-62 -74
-104 -106 -130 -101 -13 2 -8 13 25 55 23 29 41 56 41 59 -1 9 83 53 103 54
13 0 2 -18 -39 -67z m276 17 c0 -5 -2 -10 -4 -10 -3 0 -8 5 -11 10 -3 6 -1 10
4 10 6 0 11 -4 11 -10z m-553 -20 c2 0 3 -4 3 -10 0 -5 -22 -10 -49 -10 -50 0
-81 -7 -81 -19 0 -3 28 -6 62 -6 34 0 63 -5 65 -11 4 -11 -74 -54 -99 -54 -21
0 -44 30 -51 66 -5 28 -3 33 21 42 42 17 64 19 97 10 16 -4 31 -8 32 -8z m163
-30 c0 -5 -5 -10 -11 -10 -5 0 -7 5 -4 10 3 6 8 10 11 10 2 0 4 -4 4 -10z
m1039 -52 c-68 -60 -199 -148 -199 -134 0 3 38 30 85 61 47 31 100 74 117 95
18 21 35 34 37 28 2 -6 -16 -29 -40 -50z m-1139 2 c0 -5 -9 -10 -20 -10 -11 0
-20 5 -20 10 0 6 9 10 20 10 11 0 20 -4 20 -10z m-34 -32 c10 -15 -47 -62
-113 -93 -62 -30 -72 -31 -68 -7 2 9 6 33 9 52 5 31 10 35 38 37 64 5 98 10
105 16 10 10 21 8 29 -5z m41 -24 c-15 -13 -33 -24 -40 -24 -6 0 4 13 23 29
19 16 37 27 40 24 3 -3 -8 -16 -23 -29z m793 6 c0 -5 -2 -10 -4 -10 -3 0 -8 5
-11 10 -3 6 -1 10 4 10 6 0 11 -4 11 -10z m53 -135 c-104 -48 -133 -52 -38 -5
43 22 86 40 95 40 8 -1 -17 -16 -57 -35z m-1063 -36 c0 -5 -4 -9 -10 -9 -5 0
-10 7 -10 16 0 8 5 12 10 9 6 -3 10 -10 10 -16z m130 -29 c0 -5 -11 -10 -24
-10 -14 0 -28 5 -31 10 -4 6 7 10 24 10 17 0 31 -4 31 -10z m830 -12 c-19 -12
-61 -39 -94 -59 -32 -21 -81 -43 -108 -49 -44 -9 -58 -7 -111 12 l-60 22 139
27 c76 16 164 37 194 48 72 26 83 25 40 -1z m-195 -28 c-11 -5 -27 -9 -35 -9
-13 -1 -13 0 0 9 8 5 24 9 35 9 l20 0 -20 -9z m-185 -14 c0 -2 -11 -6 -25 -8
-13 -3 -22 -1 -19 3 5 9 44 13 44 5z m-67 -22 c33 -8 90 -29 125 -45 54 -24
71 -28 99 -20 18 5 33 8 33 7 0 -2 -18 -16 -40 -31 l-40 -28 -23 20 c-23 21
-155 83 -179 83 -7 1 -26 7 -43 15 -43 19 -8 19 68 -1z m-60 -29 c20 -14 37
-21 37 -15 0 16 26 12 51 -10 20 -16 21 -19 7 -20 -37 0 -16 -19 38 -35 39
-11 53 -20 46 -27 -6 -6 -20 -4 -42 7 -45 23 -48 12 -4 -14 35 -21 36 -22 19
-41 -24 -27 -39 -25 -102 10 -67 38 -69 22 -2 -24 l50 -34 -29 -21 -30 -21
-46 50 c-25 27 -46 53 -46 57 0 5 9 14 21 21 19 12 20 15 5 31 -9 10 -16 27
-16 39 0 11 -4 32 -10 46 -13 34 3 34 53 1z m-43 -200 c0 -9 7 -18 15 -21 8
-4 15 -12 15 -20 0 -8 7 -14 15 -14 22 0 18 -17 -6 -30 -11 -7 -22 -10 -23 -8
-21 29 -41 77 -38 91 4 21 22 23 22 2z m-183 -131 c-3 -3 -12 -4 -19 -1 -8 3
-5 6 6 6 11 1 17 -2 13 -5z m-500 -10 c-3 -3 -12 -4 -19 -1 -8 3 -5 6 6 6 11
1 17 -2 13 -5z m-372 -144 c-3 -5 -14 -10 -23 -9 -14 0 -13 2 3 9 27 11 27 11
20 0z m785 -104 c0 -11 -19 -15 -25 -6 -3 5 1 10 9 10 9 0 16 -2 16 -4z m-40
-36 c0 -5 -2 -10 -4 -10 -3 0 -8 5 -11 10 -3 6 -1 10 4 10 6 0 11 -4 11 -10z
m-1080 -470 c-11 -33 -20 -69 -20 -80 0 -11 -3 -20 -7 -20 -5 0 -7 52 -5 115
l3 116 25 -36 24 -36 -20 -59z m680 -100 c-6 -11 -13 -20 -15 -20 -3 0 -5 9
-5 20 0 11 7 20 15 20 13 0 14 -4 5 -20z m-435 -1070 c-9 -14 -25 5 -25 30 0
12 3 12 16 -2 9 -9 13 -21 9 -28z m-42 -1 c10 -18 16 -33 14 -35 -8 -9 -47 29
-47 47 0 28 12 23 33 -12z m-386 -217 c7 -5 9 -13 4 -21 -7 -11 -11 -9 -20 8
-12 21 -6 27 16 13z m-67 -32 c0 -5 -2 -10 -4 -10 -3 0 -8 5 -11 10 -3 6 -1
10 4 10 6 0 11 -4 11 -10z m110 -1213 c0 -2 -10 -12 -22 -23 l-23 -19 19 23
c18 21 26 27 26 19z m84 -31 c3 -13 9 -32 12 -43 3 -10 -3 -4 -15 12 -22 31
-27 55 -12 55 5 0 12 -11 15 -24z m-94 -36 c0 -5 -2 -10 -4 -10 -3 0 -8 5 -11
10 -3 6 -1 10 4 10 6 0 11 -4 11 -10z m-15 -87 c-4 -32 -8 -74 -7 -93 0 -65
-19 -199 -33 -240 -8 -22 -10 -40 -5 -40 15 0 11 -43 -5 -64 -13 -17 -15 -18
-15 -3 0 9 -4 17 -9 17 -10 0 -21 -48 -21 -91 0 -16 -5 -29 -11 -29 -8 0 -10
15 -6 48 l6 47 -21 -47 c-21 -49 -41 -61 -52 -32 -10 27 -7 80 9 123 20 57 3
52 -24 -8 -26 -55 -24 -69 21 -149 21 -37 35 -52 45 -48 8 3 18 6 23 6 5 0 18
14 30 30 23 33 43 108 55 202 3 32 11 61 17 64 14 9 3 -120 -18 -219 l-14 -68
35 -69 c37 -73 43 -92 23 -72 -7 7 -23 12 -36 12 -27 0 -58 15 -89 42 l-22 20
-13 -45 c-7 -25 -17 -46 -23 -48 -5 -1 -23 16 -38 38 -21 29 -30 56 -34 101
-6 63 -23 77 -23 19 0 -97 64 -183 157 -212 59 -18 95 -38 52 -29 -22 5 -23 4
-6 -9 28 -23 20 -30 -27 -25 -94 11 -169 95 -182 203 -9 86 -11 90 -50 104
-20 7 -45 22 -56 33 l-20 20 39 18 c30 13 54 38 96 99 l56 81 -30 20 c-37 27
-37 47 1 55 70 15 165 135 201 253 18 62 33 53 24 -15z m615 -87 c0 -8 -81
-58 -86 -53 -9 9 48 56 69 57 9 0 17 -2 17 -4z m-252 -75 c32 -9 50 -22 72
-53 17 -23 29 -43 27 -44 -2 -2 -35 13 -73 33 -68 35 -124 78 -124 95 0 5 12
2 28 -6 15 -8 46 -19 70 -25z m570 -255 c56 -62 71 -104 49 -136 -14 -20 -15
-18 -31 24 -10 25 -34 59 -54 77 -42 36 -50 49 -62 90 l-9 29 28 -15 c16 -8
51 -39 79 -69z m-302 45 c-7 -11 -66 -20 -66 -10 0 4 15 10 33 12 17 2 33 5
35 5 2 1 1 -2 -2 -7z m78 0 c4 -5 -3 -7 -14 -4 -23 6 -26 13 -6 13 8 0 17 -4
20 -9z m59 -40 c8 -8 1 -11 -28 -11 -22 0 -64 -11 -93 -25 -65 -30 -65 -30 54
-151 l86 -88 -24 -18 c-13 -9 -38 -21 -57 -24 -21 -4 -46 -20 -64 -40 -52 -60
-102 -41 -162 61 -30 51 -50 124 -42 156 10 40 77 110 131 136 43 20 62 23
119 20 38 -3 74 -10 80 -16z m-734 -41 c0 -9 -4 -8 -9 5 -5 11 -9 27 -9 35 0
9 4 8 9 -5 5 -11 9 -27 9 -35z m801 30 c13 -8 13 -10 -2 -10 -9 0 -20 5 -23
10 -8 13 5 13 25 0z m10 -35 c27 -14 87 -82 79 -89 -2 -2 -15 -9 -28 -16 -21
-11 -23 -16 -17 -62 7 -49 7 -50 -14 -35 -12 8 -30 13 -41 10 -34 -9 -74 16
-137 87 -34 38 -62 71 -62 75 0 3 19 15 43 25 51 24 137 26 177 5z m228 -92
c11 -21 22 -51 26 -67 4 -17 21 -45 37 -63 25 -29 69 -103 69 -117 0 -2 -22 3
-49 12 -48 15 -52 19 -96 101 -38 71 -44 90 -36 111 5 14 12 33 15 43 8 25 13
22 34 -20z m-1138 7 c0 -5 -5 -10 -11 -10 -5 0 -7 5 -4 10 3 6 8 10 11 10 2 0
4 -4 4 -10z m990 -55 c0 -16 17 -43 47 -75 39 -42 72 -102 73 -133 0 -5 -10
-7 -22 -5 -16 2 -26 16 -38 50 -18 53 -48 91 -66 84 -14 -5 -24 24 -24 72 0
22 5 32 15 32 9 0 15 -9 15 -25z m69 -21 c-6 -8 -18 -14 -27 -14 -13 0 -12 3
3 20 20 22 43 17 24 -6z m-890 -39 c0 -5 -6 1 -14 15 -8 14 -14 30 -14 35 0 6
6 -1 14 -15 8 -14 14 -29 14 -35z m749 -17 c21 -21 13 -37 -30 -60 -32 -16
-38 -23 -25 -26 10 -2 32 2 48 8 18 8 46 10 74 6 42 -7 47 -11 68 -54 17 -35
30 -49 56 -57 18 -6 39 -22 47 -35 18 -33 18 -85 -1 -100 -8 -7 -15 -21 -15
-31 0 -10 -17 -28 -42 -43 l-43 -26 -7 23 c-3 12 -9 34 -12 48 -3 14 -17 42
-31 63 -32 47 -32 74 0 121 38 55 20 88 -42 77 -26 -5 -31 -22 -8 -22 26 0 16
-18 -15 -29 -16 -5 -30 -14 -30 -19 0 -6 -21 -13 -46 -17 -54 -8 -78 6 -45 27
33 20 25 28 -26 29 l-48 0 45 37 c24 20 56 49 70 64 28 30 40 34 58 16z m9217
-41 c16 -31 17 -37 1 -105 -9 -39 -16 -86 -17 -104 0 -18 -3 -27 -6 -20 -11
28 -161 101 -181 88 -5 -3 -7 -17 -4 -31 4 -22 1 -25 -26 -25 -66 0 -81 -22
-28 -40 27 -9 37 -19 47 -48 6 -20 18 -45 26 -54 25 -28 98 -51 140 -45 71 12
67 -8 -7 -37 -81 -32 -130 -69 -130 -97 0 -13 4 -17 11 -13 7 4 68 12 136 19
113 11 128 15 169 43 48 35 232 108 242 97 4 -4 -3 -15 -15 -25 -13 -10 -23
-22 -23 -27 -1 -4 -27 -42 -58 -83 -74 -97 -132 -130 -198 -112 -67 18 -89 15
-104 -14 -16 -30 -17 -89 -1 -108 9 -11 -9 -26 -94 -76 -58 -34 -121 -75 -139
-91 -65 -57 -81 -134 -41 -195 22 -34 45 -30 88 14 27 28 34 41 27 52 -13 20
-13 67 0 75 6 4 7 -1 3 -11 -5 -13 -2 -15 17 -9 17 6 22 4 17 -6 -3 -8 -8 -22
-12 -31 -12 -29 15 -22 123 32 57 29 112 64 127 81 32 39 26 48 -14 20 -16
-12 -45 -28 -63 -37 l-33 -15 30 6 c27 5 28 4 10 -7 -11 -7 -50 -27 -87 -45
-67 -32 -85 -28 -51 9 21 23 11 33 -17 18 -12 -6 -24 -9 -27 -7 -5 6 16 47 44
86 17 24 17 24 -3 13 -12 -6 -35 -27 -53 -47 -26 -30 -31 -44 -31 -86 0 -63
-13 -89 -45 -89 -31 0 -33 17 -3 22 12 2 24 10 26 18 4 12 3 13 -10 3 -20 -17
-28 -7 -28 36 l-1 36 -14 -25 c-10 -17 -14 -20 -15 -9 0 9 9 24 20 34 12 10
18 25 16 32 -7 18 47 56 154 107 130 61 125 57 106 94 -21 41 -21 91 1 99 9 4
46 1 82 -5 63 -11 68 -10 103 13 21 14 72 68 113 120 42 52 80 95 85 95 14 0
12 -9 -9 -38 -38 -55 -229 -392 -222 -392 11 0 73 95 110 168 17 34 34 62 36
62 7 0 -60 -132 -92 -183 -16 -25 -21 -42 -14 -46 6 -4 0 -18 -15 -36 l-26
-30 17 28 c9 16 14 31 12 33 -7 7 -52 -59 -50 -71 2 -5 -14 -21 -33 -35 -20
-13 -32 -26 -26 -28 11 -3 -49 -62 -64 -62 -5 0 7 13 26 30 61 51 24 32 -74
-39 -171 -123 -379 -214 -512 -222 -46 -3 -49 -2 -52 21 -6 54 -24 77 -84 111
-68 38 -108 80 -108 112 0 18 -2 19 -14 7 -18 -20 -36 -76 -36 -112 0 -37 25
-96 52 -125 l21 -23 -39 0 c-34 0 -48 7 -88 45 -51 50 -106 130 -106 155 0 9
-7 31 -16 48 -22 46 -8 60 27 26 16 -15 30 -26 31 -23 2 2 14 25 27 51 17 36
34 53 66 68 54 26 69 43 60 70 -5 15 -2 20 12 20 24 0 63 -27 63 -44 0 -14 86
-102 114 -118 8 -5 60 -4 115 1 127 12 199 46 249 119 55 80 63 156 30 262
-21 70 -150 173 -211 169 -18 -1 -48 -1 -67 0 l-35 2 33 28 c17 15 32 32 32
38 0 33 -112 18 -201 -26 -49 -25 -61 -27 -76 -16 -25 18 -58 3 -118 -54 -27
-26 -76 -61 -108 -76 -60 -30 -117 -84 -117 -111 0 -16 17 -15 67 3 35 12 4
-9 -59 -42 -68 -34 -74 -45 -77 -134 -1 -43 -1 -43 22 -27 39 28 79 48 85 42
3 -4 -2 -38 -12 -77 -30 -114 -14 -190 66 -306 16 -24 34 -43 40 -43 7 0 6 5
-2 15 -23 28 6 15 36 -16 l29 -31 -40 7 -40 6 30 -15 30 -14 -32 -1 c-45 -1
-42 -21 2 -21 19 0 35 -4 35 -10 0 -13 -15 -13 -139 7 -58 9 -113 22 -122 30
-9 7 -36 20 -62 29 -25 8 -51 22 -58 30 -9 11 3 9 42 -7 74 -30 180 -62 186
-56 2 3 -33 17 -79 32 -99 33 -228 90 -228 102 0 5 -14 14 -32 21 -38 14 -32
24 16 24 20 0 36 4 36 9 0 5 5 9 10 9 6 0 10 -10 10 -22 0 -15 3 -19 11 -11 7
7 34 -6 92 -45 82 -55 144 -87 200 -103 43 -12 30 -3 -62 41 -44 22 -81 42
-81 45 0 6 30 -6 123 -50 92 -43 75 -24 -31 33 -53 29 -119 69 -146 88 -44 33
-48 38 -41 67 13 66 17 108 11 130 -3 13 -32 61 -65 106 -34 46 -63 99 -67
117 -3 19 -10 34 -14 34 -24 0 -52 -157 -39 -223 5 -23 8 -45 9 -49 1 -31
-114 63 -117 95 -7 92 -17 127 -42 150 -25 24 -99 52 -110 41 -3 -2 0 -22 6
-44 l10 -40 -69 0 c-69 0 -144 -22 -134 -38 3 -5 20 -12 37 -16 17 -3 51 -24
76 -46 42 -37 50 -40 105 -40 69 0 138 -27 103 -41 -11 -4 -39 -8 -61 -8 -50
-1 -104 -11 -104 -20 0 -3 19 -18 43 -33 23 -15 56 -41 72 -59 l30 -31 -35 6
c-19 3 -62 10 -95 15 -233 35 -230 35 -319 21 l-87 -13 -25 26 c-29 32 -37 33
-59 10 -13 -12 -15 -26 -11 -53 7 -45 -9 -63 -80 -86 -27 -9 -54 -21 -61 -26
-15 -12 -19 2 -37 122 -20 131 -27 220 -18 220 4 -1 33 -7 64 -14 l57 -14 63
46 c252 183 425 290 678 416 439 218 880 349 1352 400 187 21 182 21 203 -17z
m-9117 3 c11 -19 10 -20 -26 -20 -48 0 -60 10 -30 27 32 17 41 16 56 -7z
m-284 -75 c-4 -8 -10 -15 -15 -15 -5 0 -9 -5 -9 -10 0 -6 11 -8 28 -4 43 10
47 10 47 -6 0 -8 -10 -17 -23 -20 -39 -9 -24 -24 21 -22 39 2 41 2 23 -13 -28
-21 -79 -19 -110 6 -33 26 -33 36 1 71 29 31 46 36 37 13z m271 5 c3 -6 -1 -7
-9 -4 -18 7 -21 14 -7 14 6 0 13 -4 16 -10z m200 -37 c20 -20 46 -50 56 -67
19 -30 26 -96 12 -110 -8 -8 -83 63 -83 79 0 6 -11 27 -25 47 -14 20 -22 44
-19 52 4 11 0 16 -11 16 -9 0 -13 5 -10 10 12 20 42 9 80 -27z m-900 -53 c30
-41 55 -78 55 -84 0 -13 -4 -8 -68 80 -29 39 -52 75 -52 79 0 11 3 8 65 -75z
m135 60 c0 -5 -5 -10 -11 -10 -5 0 -7 5 -4 10 3 6 8 10 11 10 2 0 4 -4 4 -10z
m9620 -111 c31 -20 33 -23 15 -29 -10 -4 -36 0 -57 8 -34 14 -36 16 -20 28 22
17 21 17 62 -7z m-50 -44 c29 -15 64 -52 73 -77 11 -31 -29 -21 -57 14 -14 18
-28 29 -32 25 -4 -4 1 -16 11 -27 21 -23 15 -35 -12 -26 -10 3 -31 31 -46 62
l-28 56 33 -7 c18 -4 44 -13 58 -20z m-9447 -173 c27 -17 43 -33 38 -37 -13
-8 -171 123 -202 167 -14 21 2 9 47 -33 38 -37 91 -80 117 -97z m9576 97 c25
-45 23 -56 -8 -40 -25 14 -44 48 -37 67 9 23 21 16 45 -27z m-8596 -21 c-5 -7
-10 -26 -11 -41 -2 -29 -50 -107 -89 -143 -15 -14 -38 -21 -73 -23 l-50 -2 0
41 c0 49 18 68 102 111 35 17 74 40 87 50 27 22 48 26 34 7z m8688 -26 c-22
-4 -51 13 -51 29 0 5 16 1 37 -9 31 -15 33 -17 14 -20z m-9351 2 c0 -33 -40
-92 -74 -108 -60 -28 -156 -13 -156 26 0 6 7 5 17 -3 15 -12 16 -12 10 4 -7
19 9 23 33 7 8 -5 19 -5 25 -1 19 15 59 20 72 9 16 -13 24 -6 41 35 12 28 5
36 -16 15 -6 -6 -20 -13 -29 -14 -10 -2 -38 -8 -63 -13 -58 -13 -100 -14 -100
-1 0 19 56 37 128 42 40 3 78 10 84 16 14 14 28 6 28 -14z m270 11 c0 -28 -29
-72 -69 -106 -49 -43 -101 -73 -101 -60 0 5 8 12 19 16 31 9 109 94 121 130
12 36 30 47 30 20z m8452 -45 c-17 -16 -44 -32 -59 -36 -51 -11 -86 -28 -119
-56 l-32 -29 2 35 c2 23 12 43 27 56 36 29 118 59 168 59 l44 1 -31 -30z m756
5 c-11 -12 -68 -23 -73 -15 -3 5 5 11 17 13 36 7 62 8 56 2z m-8558 -13 c0
-10 -47 -59 -74 -77 -29 -19 -86 -36 -86 -26 0 4 20 22 45 41 46 34 59 57 28
46 -15 -5 -15 -4 1 9 20 15 86 21 86 7z m8400 4 c0 -3 -4 -8 -10 -11 -5 -3
-10 -1 -10 4 0 6 5 11 10 11 6 0 10 -2 10 -4z m358 -58 c-24 -131 6 -284 69
-350 25 -26 25 -26 5 -37 -12 -6 -30 -11 -42 -11 -18 0 -20 -4 -15 -32 9 -57
25 -163 25 -170 0 -4 14 -23 30 -42 l31 -35 -22 -12 c-13 -7 -41 -9 -69 -6
l-47 6 -32 -53 c-56 -94 -119 -136 -201 -136 -75 0 -147 48 -77 51 21 1 20 2
-3 9 -14 5 11 6 60 3 70 -5 92 -2 120 12 51 25 98 73 111 112 17 53 4 50 -27
-7 -19 -34 -42 -60 -69 -76 -62 -36 -68 -33 -60 30 l7 55 -36 -11 c-27 -9 -46
-8 -78 2 -24 8 -50 12 -58 11 -19 -3 -12 3 68 63 34 26 62 54 62 63 0 33 33
149 61 213 22 52 28 59 29 37 0 -15 -6 -40 -14 -55 -22 -45 -47 -175 -40 -212
7 -35 30 -70 46 -70 17 0 125 79 132 95 9 25 7 108 -4 125 -7 11 -10 4 -10
-25 0 -22 -4 -55 -10 -74 -11 -38 -48 -83 -61 -75 -5 3 -9 31 -10 62 -1 47 -2
52 -8 26 -9 -37 -19 -54 -32 -54 -5 0 0 24 11 53 24 64 26 85 6 68 -11 -10
-16 -8 -21 8 -9 30 3 61 21 54 11 -4 14 4 14 36 0 46 55 228 71 233 5 2 16 29
23 60 11 49 39 108 50 108 2 0 -1 -24 -6 -52z m-1203 19 c-3 -7 -6 -26 -8 -44
-2 -26 -14 -40 -79 -87 -76 -56 -78 -57 -128 -50 -27 4 -50 10 -50 15 0 11 53
47 103 69 24 11 67 42 95 71 46 46 79 59 67 26z m884 3 c11 -6 7 -12 -14 -26
-22 -14 -53 -20 -133 -22 -118 -5 -126 4 -40 42 39 17 63 21 111 18 34 -2 68
-8 76 -12z m-8549 -4 c0 -3 -4 -8 -10 -11 -5 -3 -10 -1 -10 4 0 6 5 11 10 11
6 0 10 -2 10 -4z m7915 -6 c3 -5 -3 -10 -14 -10 -12 0 -21 5 -21 10 0 6 6 10
14 10 8 0 18 -4 21 -10z m-233 -22 c-7 -7 -12 -8 -12 -2 0 14 12 26 19 19 2
-3 -1 -11 -7 -17z m378 3 c0 -5 -9 -7 -20 -4 -11 3 -20 7 -20 9 0 2 9 4 20 4
11 0 20 -4 20 -9z m-147 -12 c43 -12 111 -68 132 -109 l14 -27 -83 -31 c-90
-35 -147 -40 -166 -17 -7 8 -26 15 -42 15 l-29 0 25 33 c30 39 32 59 11 77
-24 20 -18 30 28 50 49 23 59 24 110 9z m135 -15 c88 -44 141 -127 150 -232
l5 -63 -60 -58 c-111 -108 -190 -115 -222 -18 -9 26 -28 57 -43 70 -56 48 -61
97 -8 97 17 0 59 12 93 26 34 15 77 33 95 41 31 13 32 14 18 41 -16 30 -79 93
-111 110 -45 25 31 12 83 -14z m-8952 -44 c2 0 4 -5 4 -10 0 -6 -13 -4 -30 5
-16 8 -35 15 -43 15 -8 0 -22 9 -33 21 -17 19 -15 19 40 -5 32 -14 60 -26 62
-26z m-111 3 c24 -20 42 -39 40 -43 -2 -3 5 -17 15 -30 16 -21 21 -23 32 -11
7 8 8 11 2 8 -6 -4 -19 2 -29 13 -17 19 -17 20 2 20 34 0 65 -44 71 -100 2
-27 3 -50 0 -50 -2 0 -45 40 -96 90 -68 66 -92 96 -92 115 0 14 3 25 6 25 3 0
25 -17 49 -37z m1095 23 c-58 -12 -74 -11 -50 4 8 6 35 9 60 9 l45 -1 -55 -12z
m8059 -7 c13 -11 22 -21 20 -24 -3 -2 -18 7 -34 20 -17 13 -25 24 -20 24 6 0
21 -9 34 -20z m-7976 -20 c50 -13 47 -25 -8 -34 -48 -7 -96 0 -130 18 -19 10
-19 10 0 18 29 11 94 10 138 -2z m7525 -14 c14 -29 -2 -34 -18 -6 -12 24 -13
31 -2 31 5 0 14 -11 20 -25z m-7773 -30 c98 -59 98 -59 1 -84 -98 -24 -107
-25 -159 -10 -29 8 -37 14 -33 26 4 10 2 13 -8 10 -15 -6 -43 19 -33 29 3 3
54 1 113 -5 134 -14 144 -14 125 -2 -8 5 -69 13 -135 17 -104 6 -117 9 -101
20 10 8 29 14 41 14 13 0 25 3 28 8 2 4 26 8 53 10 41 2 58 -3 108 -33z m7855
18 c0 -9 -11 -30 -24 -48 -20 -26 -30 -31 -54 -27 -25 3 -39 -4 -76 -38 -28
-26 -51 -40 -61 -36 -20 7 -19 16 10 49 26 29 103 67 136 67 11 0 24 11 31 25
13 28 38 34 38 8z m-8616 -8 c6 -16 -11 -20 -40 -8 -16 6 -16 7 2 14 28 11 31
11 38 -6z m491 -6 c-44 -20 -65 -24 -65 -10 0 11 29 23 40 16 5 -3 11 -1 15 5
3 5 16 10 28 9 17 0 13 -5 -18 -20z m-110 -19 c-3 -5 -16 -10 -28 -9 -21 0
-21 1 -2 9 28 12 37 12 30 0z m-241 -112 c39 -40 79 -89 89 -108 15 -30 15
-31 1 -10 -10 14 -55 62 -101 108 -45 45 -78 82 -72 82 6 0 43 -33 83 -72z
m7522 36 c35 -27 46 -48 19 -38 -20 8 -19 6 10 -61 14 -32 24 -59 22 -62 -10
-10 -75 81 -89 125 -23 69 -15 76 38 36z m695 16 c22 -12 26 -32 4 -24 -9 4
-15 0 -15 -10 0 -8 -13 -22 -29 -31 -16 -8 -37 -22 -46 -32 -10 -9 -39 -24
-66 -33 l-49 -17 0 26 c1 44 46 86 122 112 64 22 55 21 79 9z m204 -16 c9 -14
15 -28 12 -30 -2 -3 -24 3 -47 12 -39 16 -41 18 -24 31 26 19 40 16 59 -13z
m85 -14 c25 -49 72 -171 68 -175 -2 -3 -19 6 -38 20 -41 30 -55 24 -35 -16 14
-26 14 -29 -1 -29 -22 0 -90 60 -86 77 1 7 -6 18 -18 25 -26 17 -26 38 0 31
26 -7 25 4 -2 28 -50 41 -80 16 -72 -58 8 -61 -5 -87 -52 -109 -19 -9 -47 -33
-62 -53 -14 -20 -29 -40 -33 -44 -15 -19 -52 66 -55 125 -2 54 0 61 30 93 29
30 36 33 72 28 33 -4 45 -1 71 21 49 41 104 31 161 -31 41 -44 51 -37 21 14
-13 24 -20 47 -16 57 8 20 36 18 47 -4z m-8170 -10 c0 -5 -2 -10 -4 -10 -3 0
-8 5 -11 10 -3 6 -1 10 4 10 6 0 11 -4 11 -10z m78 3 c-10 -2 -26 -2 -35 0
-10 3 -2 5 17 5 19 0 27 -2 18 -5z m-55 -44 c155 -39 243 -72 334 -125 82 -48
116 -74 98 -74 -12 0 -69 34 -80 47 -16 20 -204 104 -239 107 -17 2 -44 8 -59
14 -16 7 -40 12 -53 12 -14 0 -46 6 -72 14 -127 38 -122 36 -62 30 30 -3 90
-15 133 -25z m289 -3 c180 -59 269 -104 326 -167 38 -42 50 -61 45 -77 -5 -19
-10 -21 -51 -15 -55 8 -51 -8 8 -27 77 -26 103 22 48 87 -18 21 -26 32 -16 25
25 -20 73 -31 91 -21 26 15 31 -10 8 -42 -14 -19 -19 -37 -16 -52 4 -16 0 -28
-11 -38 -9 -8 -19 -13 -21 -11 -12 8 -25 -3 -37 -33 -16 -38 -68 -75 -105 -75
-23 0 -23 0 -16 84 8 101 -5 137 -68 191 -39 34 -65 46 -52 25 11 -17 -2 -11
-65 29 -65 42 -180 90 -270 111 l-55 14 35 8 c44 10 125 -1 95 -13 -12 -4 -14
-8 -5 -8 8 0 24 4 35 8 18 7 17 9 -10 19 -73 26 14 9 107 -22z m7117 -3 c10
-21 40 -69 65 -106 49 -74 58 -116 31 -154 -14 -20 -17 -21 -45 -6 -32 15 -34
20 -22 40 6 10 12 10 28 -2 28 -21 35 -18 24 9 -6 17 -5 26 2 28 7 3 9 12 5
21 -9 25 -48 7 -67 -31 -8 -17 -18 -32 -21 -32 -22 -1 -56 179 -39 210 5 10
10 28 10 39 0 30 7 26 29 -16z m604 10 c-7 -2 -19 -2 -25 0 -7 3 -2 5 12 5 14
0 19 -2 13 -5z m-903 -25 c19 -13 36 -29 38 -37 4 -12 -43 17 -82 51 -22 18
13 7 44 -14z m-30 -18 c19 -10 44 -28 55 -40 l20 -23 -44 6 c-42 5 -141 62
-141 81 0 12 68 -3 110 -24z m140 26 c0 -3 -4 -8 -10 -11 -5 -3 -10 -1 -10 4
0 6 5 11 10 11 6 0 10 -2 10 -4z m-7414 -189 c13 -16 24 -37 24 -47 0 -10 11
-40 24 -67 23 -45 46 -146 46 -202 l0 -25 -31 30 c-45 42 -60 85 -66 191 -3
51 -9 93 -12 93 -7 0 -24 43 -35 90 -6 22 -5 22 10 -5 9 -16 28 -43 40 -58z
m8458 21 l1 -43 -46 -3 c-42 -3 -49 0 -74 30 -34 41 -16 49 27 13 23 -19 34
-23 37 -14 2 7 -6 19 -18 27 -23 16 -28 42 -8 42 8 0 22 -9 32 -20 25 -27 33
-25 27 8 -4 22 -2 25 8 15 7 -7 14 -32 14 -55z m-917 -37 c61 -49 98 -89 90
-98 -4 -3 -15 1 -24 9 -28 24 -200 101 -215 95 -7 -2 10 -14 37 -26 128 -56
185 -85 185 -94 0 -5 -13 -7 -30 -5 -16 3 -30 1 -30 -4 0 -14 -49 -9 -83 9
-18 9 -63 43 -101 77 l-69 61 34 6 c19 4 62 7 96 8 57 1 65 -2 110 -38z m405
-30 c3 -52 11 -83 35 -130 17 -34 28 -61 23 -61 -13 0 -79 140 -81 170 -3 51
1 90 10 90 5 0 10 -31 13 -69z m-1112 -32 c19 -15 38 -20 59 -17 43 6 39 -7
-6 -18 -24 -6 -42 -18 -50 -34 -19 -38 3 -64 61 -70 56 -7 64 14 10 27 -19 4
-35 11 -35 16 1 4 1 16 1 27 0 14 11 22 43 31 23 6 54 17 68 25 22 11 50 11
145 3 122 -10 279 -39 324 -59 l25 -11 -25 6 c-59 12 -276 17 -300 6 -22 -10
-21 -11 18 -7 23 2 40 1 37 -4 -2 -4 -35 -10 -72 -14 -124 -13 -173 -48 -207
-151 -24 -72 -32 -82 -53 -69 -35 21 -63 75 -63 120 0 26 -5 46 -14 51 -22 13
-28 49 -12 63 11 9 14 23 9 56 -3 24 -3 44 1 44 4 0 20 -10 36 -21z m849 -34
c19 -20 31 -38 28 -42 -8 -8 -32 12 -58 49 -28 39 -11 35 30 -7z m1016 5 c3
-5 1 -10 -4 -10 -6 0 -11 5 -11 10 0 6 2 10 4 10 3 0 8 -4 11 -10z m-425 -93
c61 -40 102 -88 88 -102 -9 -9 -91 48 -116 80 -11 14 -24 25 -30 25 -5 0 -13
10 -17 23 -6 21 -7 21 -16 -8 -12 -39 -4 -59 21 -52 15 4 28 -4 48 -29 16 -20
36 -34 49 -34 27 0 42 -20 16 -21 -13 -1 -10 -3 7 -9 22 -6 23 -8 7 -15 -31
-13 -89 5 -123 39 -45 45 -60 103 -39 153 16 38 16 38 29 15 7 -13 41 -42 76
-65z m-810 27 c34 -10 49 -19 41 -24 -9 -5 -4 -10 14 -14 15 -4 25 -9 22 -12
-2 -3 -51 5 -108 17 -84 17 -125 20 -214 16 -83 -4 -104 -3 -85 5 29 13 238
17 290 6 l35 -8 -35 14 c-48 20 -25 19 40 0z m130 -40 c0 -2 -13 2 -30 11 -16
9 -30 18 -30 21 0 2 14 -2 30 -11 17 -9 30 -18 30 -21z m186 15 c19 -22 19
-22 -3 -10 -24 12 -39 31 -25 31 5 0 17 -10 28 -21z m1084 7 c0 -9 -151 -87
-161 -84 -7 2 25 23 70 46 83 42 91 46 91 38z m-1375 -42 c120 -27 281 -81
272 -91 -3 -2 -31 5 -63 17 -32 11 -70 20 -84 20 -14 1 -36 7 -50 15 -14 8
-38 14 -53 15 -15 0 -39 8 -54 17 -21 14 -53 17 -189 17 -89 0 -160 3 -158 6
10 9 208 15 259 7 28 -4 82 -15 120 -23z m-6571 -9 c15 -19 23 -35 19 -34 -12
1 -66 69 -55 69 5 0 22 -16 36 -35z m5831 15 c-10 -16 -82 -50 -105 -50 -32 0
-25 30 8 31 15 0 43 7 62 14 44 17 42 17 35 5z m-6206 -59 c42 -22 105 -87
116 -120 4 -14 -2 -31 -18 -53 -14 -18 -34 -52 -46 -75 -19 -37 -19 -42 -4
-45 12 -2 4 -16 -33 -57 -61 -66 -77 -64 -139 20 -46 62 -53 63 -72 4 -5 -16
-14 -30 -19 -30 -19 0 -52 91 -57 159 -2 39 -9 72 -15 74 -13 4 -4 32 10 32 5
0 21 14 35 30 60 71 168 98 242 61z m532 -86 c12 -24 -45 38 -73 80 -12 18 -4
13 22 -15 22 -25 46 -54 51 -65z m-90 78 c13 -16 12 -17 -3 -4 -17 13 -22 21
-14 21 2 0 10 -8 17 -17z m5744 -3 c-4 -6 7 -8 27 -5 l33 5 -40 -19 c-46 -23
-82 -27 -45 -6 14 8 21 14 17 15 -9 0 1 20 9 20 3 0 2 -4 -1 -10z m1935 1
c-58 -34 -265 -80 -281 -64 -7 7 14 12 58 16 37 3 97 17 133 30 65 25 121 36
90 18z m-8342 -13 c-2 -6 -10 -14 -16 -16 -7 -2 -10 2 -6 12 7 18 28 22 22 4z
m6352 -12 c0 -2 -7 -6 -15 -10 -8 -3 -15 -1 -15 4 0 6 7 10 15 10 8 0 15 -2
15 -4z m-5667 -26 c4 0 5 6 1 13 -4 6 2 4 13 -6 34 -29 70 -107 102 -220 30
-102 31 -112 20 -175 -17 -99 -124 -256 -193 -283 -17 -7 -44 -22 -60 -33 -17
-11 -41 -21 -55 -23 -14 -1 -42 -5 -62 -9 -26 -4 -58 1 -115 21 -43 15 -83 32
-89 37 -7 8 -4 9 10 3 11 -4 38 -11 60 -16 22 -4 59 -15 83 -23 65 -23 133 9
72 34 -42 17 -37 28 16 36 29 4 50 13 57 26 7 11 35 35 63 53 60 39 107 106
133 190 34 108 35 146 11 219 -12 36 -24 66 -27 66 -3 0 -3 -7 1 -15 3 -8 1
-15 -5 -15 -7 0 -9 10 -5 25 6 25 -11 62 -44 95 -9 8 -11 12 -6 8 6 -5 14 -8
19 -8z m5532 -10 c-3 -5 -12 -10 -18 -10 -7 0 -6 4 3 10 19 12 23 12 15 0z
m1605 -5 c10 -12 10 -15 -3 -15 -8 0 -23 3 -32 6 -13 5 -14 8 -3 15 18 12 24
11 38 -6z m144 -5 c-11 -4 -45 -5 -75 0 l-54 8 75 0 c50 1 68 -2 54 -8z
m-1734 -20 c0 -6 -29 -40 -64 -77 -53 -54 -67 -76 -81 -125 -37 -134 -29 -260
22 -348 15 -25 27 -56 28 -69 0 -15 17 -38 45 -62 l45 -39 -37 0 c-43 0 -50
-16 -19 -44 17 -15 79 -33 191 -55 24 -4 31 -9 22 -15 -8 -4 -32 -3 -55 2 -23
6 -63 14 -88 17 -33 4 -54 14 -74 35 -16 17 -34 30 -41 30 -7 0 -24 21 -39 48
-15 26 -36 56 -46 67 -27 30 -39 69 -55 183 -13 96 -13 110 3 178 18 72 21 76
118 179 92 97 125 122 125 95z m1535 0 c-3 -5 -21 -10 -38 -10 -103 -1 -248
-60 -319 -130 -27 -27 -53 -48 -57 -46 -4 3 -26 -32 -49 -77 -23 -45 -53 -95
-67 -110 -25 -28 -115 -64 -115 -45 0 23 104 157 145 187 24 17 47 40 50 51 4
11 15 20 25 20 10 0 44 20 77 44 96 72 173 104 278 116 33 4 64 8 68 9 5 0 5
-3 2 -9z m-1618 -20 c-14 -11 -29 -20 -33 -20 -4 0 1 9 11 20 10 11 25 20 33
20 9 0 6 -7 -11 -20z m1863 0 c0 -28 -33 -45 -128 -70 -46 -11 -92 -26 -102
-33 -29 -18 -34 -2 -13 39 21 41 90 85 102 66 4 -7 24 -7 66 2 33 8 63 14 68
15 4 0 7 -8 7 -19z m-7200 -61 c0 -5 -4 -9 -8 -9 -9 0 -32 44 -32 58 1 10 40
-38 40 -49z m-862 -112 c7 -16 12 -34 12 -40 -1 -26 -49 100 -50 130 0 66 15
69 21 3 3 -36 11 -78 17 -93z m432 111 c23 -48 28 -143 8 -135 -8 2 -12 19
-11 43 l2 39 -12 -32 c-7 -18 -18 -38 -26 -45 -11 -11 -13 -5 -8 36 l5 49 -23
-29 c-13 -16 -26 -26 -30 -22 -8 8 42 108 55 108 6 0 10 7 10 15 0 25 8 17 30
-27z m5730 22 c0 -5 -5 -10 -11 -10 -5 0 -7 5 -4 10 3 6 8 10 11 10 2 0 4 -4
4 -10z m105 0 c-3 -5 -11 -10 -16 -10 -6 0 -7 5 -4 10 3 6 11 10 16 10 6 0 7
-4 4 -10z m45 -10 c0 -17 65 -149 110 -222 31 -53 39 -74 34 -94 -6 -24 -5
-26 15 -21 22 5 22 4 16 -66 -4 -40 -11 -86 -16 -104 l-10 -31 -53 24 c-49 22
-58 23 -100 12 -43 -11 -47 -11 -72 12 -33 31 -58 87 -74 165 -11 51 -10 70 6
139 16 71 23 85 72 138 52 56 72 69 72 48z m-5445 -50 c3 -5 1 -10 -4 -10 -6
0 -11 5 -11 10 0 6 2 10 4 10 3 0 8 -4 11 -10z m5329 -24 c-6 -16 -34 -30 -34
-18 0 10 22 32 32 32 4 0 5 -6 2 -14z m-5300 -46 c7 -24 6 -24 -8 -6 -9 11
-16 29 -16 40 1 17 2 18 9 6 5 -8 12 -26 15 -40z m-90 1 c-6 -6 -24 19 -24 34
1 6 7 1 15 -9 8 -11 12 -22 9 -25z m5856 29 c0 -5 -5 -10 -11 -10 -5 0 -7 5
-4 10 3 6 8 10 11 10 2 0 4 -4 4 -10z m188 -9 c42 -22 70 -50 101 -101 11 -19
21 -28 21 -21 0 12 3 12 12 3 9 -9 10 -15 2 -20 -7 -4 -9 -21 -7 -39 3 -18 9
-30 14 -27 5 3 9 -3 9 -13 0 -10 -9 -24 -19 -30 -10 -7 -31 -37 -46 -67 -28
-57 -86 -112 -110 -103 -9 4 -12 17 -8 48 7 46 10 44 -57 23 -9 -3 -39 19 -75
56 l-60 60 -6 93 c-8 107 -6 111 73 138 68 24 110 24 156 0z m-6474 -71 c6 0
17 5 24 12 20 20 14 -4 -18 -80 -16 -39 -30 -85 -30 -102 0 -25 -4 -31 -17
-28 -15 3 -18 13 -16 51 2 30 -1 46 -7 42 -6 -3 -10 -17 -10 -31 0 -31 -14
-31 -28 1 -6 14 -20 25 -29 25 -10 0 -33 9 -50 20 -25 15 -33 16 -33 6 0 -18
26 -39 39 -32 5 4 12 -3 16 -14 3 -11 12 -20 19 -20 16 0 51 -38 43 -46 -3 -3
-22 -1 -41 6 -41 13 -94 71 -112 121 -8 23 -13 27 -13 14 -1 -11 8 -35 19 -53
23 -37 24 -42 10 -42 -5 0 -21 17 -35 37 -28 42 -34 107 -12 137 12 16 15 15
37 -17 14 -18 42 -48 62 -66 l38 -33 57 62 c32 35 60 68 63 74 3 6 6 -1 8 -16
2 -16 9 -28 16 -28z m6222 -12 c3 -18 8 -52 10 -76 2 -36 0 -41 -12 -31 -8 6
-14 18 -14 25 0 8 -4 14 -9 14 -5 0 -16 12 -26 26 -16 25 -16 27 6 50 30 32
36 30 45 -8z m-6568 -24 c25 -7 66 -88 57 -112 -3 -8 2 -23 11 -33 16 -18 16
-19 -14 -19 -24 0 -40 11 -77 52 -25 28 -55 64 -66 79 l-19 28 32 4 c18 2 38
4 43 5 6 1 20 -1 33 -4z m6502 -190 c0 -12 5 -26 10 -29 6 -3 10 1 10 9 0 10
13 2 35 -23 19 -21 35 -46 35 -55 0 -9 8 -16 19 -16 11 0 23 -4 26 -10 8 -13
-16 -13 -49 -1 -19 8 -30 6 -51 -11 l-27 -21 6 44 c6 45 -2 38 -24 -23 -5 -16
-17 -28 -26 -28 -13 0 -15 6 -10 28 4 15 10 62 13 105 5 64 8 75 19 66 8 -6
14 -22 14 -35z m450 -10 c-13 -38 -96 -131 -108 -119 -3 3 8 18 26 32 19 14
44 50 58 81 27 61 43 65 24 6z m-6715 24 c29 -13 33 -28 8 -28 -29 1 -72 40
-43 40 5 0 21 -5 35 -12z m102 -8 c24 0 38 -7 55 -30 17 -24 29 -30 57 -29 20
0 30 3 24 6 -7 2 -13 10 -13 16 0 6 18 -7 40 -28 22 -21 40 -42 40 -45 0 -3
-26 -11 -57 -18 l-58 -12 -33 39 c-18 22 -49 50 -70 62 -20 13 -40 27 -44 33
-10 15 3 29 15 17 6 -6 26 -11 44 -11z m83 -5 c0 -13 -4 -14 -20 -5 -11 6 -20
13 -20 15 0 3 9 5 20 5 11 0 20 -7 20 -15z m225 -24 c-3 -6 -11 -11 -17 -11
-6 0 -6 6 2 15 14 17 26 13 15 -4z m-468 -7 c2 -6 -5 -14 -17 -17 -15 -4 -20
0 -20 15 0 21 30 23 37 2z m197 -74 c45 -44 88 -80 94 -80 7 0 12 -5 12 -11 0
-14 -62 -3 -102 17 -15 8 -37 14 -48 14 -47 0 -60 17 -60 80 0 38 4 60 11 60
6 0 48 -36 93 -80z m5766 59 c0 -6 -4 -7 -10 -4 -5 3 -10 11 -10 16 0 6 5 7
10 4 6 -3 10 -11 10 -16z m-5940 -24 c0 -8 -4 -15 -10 -15 -5 0 -7 7 -4 15 4
8 8 15 10 15 2 0 4 -7 4 -15z m6570 -12 c0 -25 -1 -26 -16 -11 -9 9 -13 21
-10 27 13 20 26 11 26 -16z m-400 -54 c0 -5 -9 -9 -20 -9 -19 0 -26 11 -14 23
8 8 34 -3 34 -14z m-88 -7 c-10 -3 -10 -7 -1 -18 15 -18 43 -18 78 1 25 12 31
12 47 0 11 -8 32 -15 47 -15 51 0 23 -25 -37 -32 -31 -4 -76 -16 -99 -26 l-43
-19 -48 44 c-27 24 -47 45 -45 46 17 11 96 32 104 28 5 -2 3 -7 -3 -9z m-252
-23 c0 -6 -4 -7 -10 -4 -5 3 -10 11 -10 16 0 6 5 7 10 4 6 -3 10 -11 10 -16z
m638 2 c9 -27 -113 -53 -147 -32 -22 14 -3 31 34 31 19 0 36 4 39 9 8 12 69 6
74 -8z m-5973 -11 c-3 -5 -12 -10 -18 -10 -7 0 -6 4 3 10 19 12 23 12 15 0z
m6005 -10 c0 -10 -32 -30 -49 -30 -19 0 -12 17 12 28 28 14 37 14 37 2z m-163
-26 c30 -8 19 -24 -17 -24 -29 0 -45 12 -33 24 8 7 21 8 50 0z m225 -26 l40
-31 -24 -13 c-31 -18 -93 -17 -107 0 -10 11 -8 16 8 21 12 3 22 11 22 16 1 5
3 14 4 19 1 6 3 12 4 15 2 10 14 4 53 -27z m-301 12 c12 0 -42 -108 -58 -114
-6 -3 -31 1 -55 8 -24 8 -65 18 -92 22 -60 11 -75 34 -22 34 20 0 62 11 94 24
68 28 92 35 110 30 8 -2 18 -4 23 -4z m-6215 -49 c-4 -5 10 -4 29 2 24 7 39 7
45 1 7 -7 -12 -15 -57 -23 -83 -15 -143 -49 -167 -93 -18 -32 -18 -36 -1 -67
19 -38 7 -64 -20 -41 -19 16 -20 82 0 119 26 51 110 110 158 111 10 0 16 -4
13 -9z m6332 -28 c-10 -12 -14 -12 -27 2 -14 14 -14 17 -1 25 21 13 44 -8 28
-27z m-61 -15 c-3 -8 -6 -5 -6 6 -1 11 2 17 5 13 3 -3 4 -12 1 -19z m-161
-143 c14 -13 30 -22 35 -19 26 16 99 -123 99 -187 0 -60 -61 -134 -77 -93 -4
12 2 24 20 38 39 32 38 96 -3 158 -17 26 -41 53 -53 62 -55 39 -82 66 -65 66
9 0 29 -11 44 -25z m-6646 -211 c0 -8 -4 -12 -10 -9 -5 3 -10 13 -10 21 0 8 5
12 10 9 6 -3 10 -13 10 -21z m130 -43 c0 -11 -31 -24 -39 -16 -3 3 1 10 9 15
19 12 30 12 30 1z m-114 -58 c-11 -11 -17 4 -9 23 7 18 8 18 11 1 2 -10 1 -21
-2 -24z m6854 -333 c7 -13 7 -20 1 -20 -6 0 -15 9 -21 20 -7 13 -7 20 -1 20 6
0 15 -9 21 -20z m137 -7 c-9 -9 -20 -13 -24 -9 -4 4 -1 11 7 16 25 16 35 11
17 -7z m-67 -80 c0 -20 -3 -24 -11 -16 -7 7 -9 19 -6 27 10 24 17 19 17 -11z"/>
<path d="M4254 8438 c-6 -9 6 -14 51 -21 17 -3 39 -9 49 -13 14 -5 17 -4 12 4
-12 20 19 14 48 -9 14 -11 26 -28 26 -37 0 -15 -12 -17 -94 -16 -85 0 -98 3
-136 28 -40 26 -45 46 -13 46 9 0 14 3 10 6 -10 11 -87 -7 -87 -21 0 -20 27
-39 33 -23 3 9 15 3 38 -18 30 -27 41 -30 89 -29 42 1 60 -3 78 -19 12 -11 22
-23 22 -28 0 -15 -54 -8 -99 12 -24 11 -44 20 -45 20 -1 0 -2 -9 -3 -21 -1
-15 2 -19 14 -15 8 4 21 2 28 -4 12 -10 88 -29 130 -33 17 -2 20 3 17 36 -3
35 -1 38 17 32 18 -5 21 -2 21 24 0 38 -41 87 -83 100 -36 11 -116 10 -123 -1z
m136 -108 c0 -5 -4 -10 -9 -10 -6 0 -13 5 -16 10 -3 6 1 10 9 10 9 0 16 -4 16
-10z"/>
<path d="M4100 8340 c34 -48 56 -53 24 -5 -8 13 -22 26 -30 29 -11 4 -9 -3 6
-24z"/>
<path d="M4160 8340 c6 -12 10 -35 8 -53 -2 -26 -8 -33 -30 -35 -23 -3 -33 5
-64 48 -20 28 -38 49 -41 47 -2 -3 3 -22 12 -44 20 -50 73 -81 113 -67 22 8
27 16 25 42 -2 47 -12 82 -24 82 -6 0 -6 -7 1 -20z"/>
<path d="M4550 9060 c0 -5 4 -10 9 -10 6 0 13 5 16 10 3 6 -1 10 -9 10 -9 0
-16 -4 -16 -10z"/>
<path d="M4992 8913 c-7 -10 -10 -12 -7 -5 3 6 2 12 -4 12 -19 0 -20 -16 -1
-27 21 -14 58 6 46 25 -10 16 -19 15 -34 -5z"/>
<path d="M4720 8982 c0 -5 7 -15 15 -22 8 -7 15 -8 15 -2 0 5 -7 15 -15 22 -8
7 -15 8 -15 2z"/>
<path d="M4170 8494 l-35 -14 34 5 c34 5 48 12 40 19 -2 2 -20 -3 -39 -10z"/>
<path d="M779 3613 c-13 -16 -12 -17 4 -4 9 7 17 15 17 17 0 8 -8 3 -21 -13z"/>
<path d="M719 3548 c-14 -12 -59 -83 -59 -93 0 -2 9 -9 19 -14 16 -9 24 -4 50
38 17 26 31 55 31 64 0 20 -20 22 -41 5z"/>
<path d="M550 3240 c0 -5 5 -10 10 -10 6 0 10 5 10 10 0 6 -4 10 -10 10 -5 0
-10 -4 -10 -10z"/>
<path d="M762 3119 c2 -7 10 -15 17 -17 8 -3 12 1 9 9 -2 7 -10 15 -17 17 -8
3 -12 -1 -9 -9z"/>
<path d="M2132 2598 c-6 -6 -8 -17 -5 -24 3 -8 -2 -17 -11 -20 -28 -11 -17
-24 14 -17 24 4 30 2 30 -11 0 -10 4 -14 10 -11 15 9 8 58 -11 77 -11 11 -20
13 -27 6z"/>
<path d="M11272 2410 c0 -14 2 -19 5 -12 2 6 2 18 0 25 -3 6 -5 1 -5 -13z"/>
<path d="M11266 2324 c-3 -8 -3 -42 1 -74 5 -55 8 -60 29 -60 21 0 24 5 24 34
0 55 -12 96 -30 106 -13 7 -20 6 -24 -6z"/>
<path d="M11315 1949 c-4 -6 -5 -12 -2 -15 2 -3 7 2 10 11 7 17 1 20 -8 4z"/>
<path d="M11063 1943 c-18 -6 -16 -23 1 -23 17 0 30 16 19 23 -5 2 -14 2 -20
0z"/>
<path d="M2313 2302 c-7 -4 6 -14 35 -26 26 -11 76 -38 111 -62 35 -23 70 -40
78 -37 25 10 -23 48 -113 92 -89 44 -93 45 -111 33z m208 -109 c10 -12 5 -11
-18 6 -18 12 -33 24 -33 27 0 9 37 -15 51 -33z"/>
<path d="M1940 1915 c0 -13 24 -55 32 -55 5 0 2 14 -7 30 -14 27 -25 38 -25
25z"/>
<path d="M9449 1380 c-13 -10 -19 -19 -13 -20 6 0 19 9 29 20 23 26 14 26 -16
0z"/>
<path d="M10090 1670 c-24 -15 -7 -18 25 -4 23 10 25 13 10 13 -11 1 -27 -3
-35 -9z"/>
<path d="M2586 1631 c-4 -5 -2 -12 3 -15 5 -4 12 -2 15 3 4 5 2 12 -3 15 -5 4
-12 2 -15 -3z"/>
<path d="M2530 1441 c-6 -12 -7 -21 -1 -21 10 0 24 30 17 37 -2 3 -9 -5 -16
-16z"/>
<path d="M8756 1461 c-4 -7 -5 -15 -2 -18 9 -9 19 4 14 18 -4 11 -6 11 -12 0z"/>
<path d="M2510 1205 c0 -6 6 -17 13 -24 10 -10 9 -11 -5 -6 -22 9 -24 -8 -3
-25 14 -12 35 -6 35 9 0 13 -39 58 -40 46z"/>
<path d="M8618 1009 c-23 -13 -25 -54 -2 -45 9 3 20 6 25 6 5 0 9 7 9 15 0 9
-6 12 -17 9 -10 -3 -7 2 7 10 28 17 6 22 -22 5z"/>
<path d="M4490 9655 c0 -17 26 -55 37 -55 23 0 11 42 -14 51 -13 5 -23 6 -23
4z"/>
<path d="M1752 1987 c-30 -17 -62 -71 -62 -102 0 -7 8 -23 19 -36 l18 -23 49
23 c27 13 52 28 55 33 4 6 12 9 18 7 7 -3 2 -18 -14 -41 -16 -24 -21 -39 -14
-43 6 -4 11 -5 12 -4 2 2 11 22 21 44 l18 39 19 -24 c25 -33 24 -20 -3 36
l-23 46 -31 -38 c-27 -32 -38 -37 -75 -38 -62 -1 -65 27 -8 89 23 25 40 47 38
49 -2 2 -19 -6 -37 -17z"/>
<path d="M1799 1943 c-36 -43 -40 -55 -9 -26 19 18 32 35 29 38 -3 3 -12 -3
-20 -12z"/>
<path d="M1769 1783 c0 -10 -4 -52 -8 -93 -10 -90 -2 -106 40 -85 37 20 42 19
34 -5 -5 -17 -2 -20 20 -20 57 0 112 99 86 156 -6 14 -11 34 -11 44 0 11 -4
20 -9 20 -5 0 -11 -26 -13 -59 -2 -47 0 -57 11 -53 10 4 13 1 8 -12 -4 -10 -7
-21 -7 -25 0 -11 -39 -51 -50 -51 -6 0 -10 19 -11 43 0 45 -37 168 -38 129 -1
-13 4 -32 9 -43 9 -15 6 -26 -10 -49 -32 -45 -44 -38 -37 23 4 28 9 62 13 75
5 16 2 22 -10 22 -9 0 -16 -8 -17 -17z m81 -123 c0 -5 -4 -10 -10 -10 -5 0
-10 5 -10 10 0 6 5 10 10 10 6 0 10 -4 10 -10z"/>
<path d="M9666 1363 c26 -85 26 -88 5 -114 l-19 -24 -41 43 c-50 52 -54 33 -5
-23 34 -38 36 -39 62 -25 42 24 49 91 16 147 -13 24 -27 43 -29 43 -2 0 3 -21
11 -47z"/>
<path d="M9515 1345 c-22 -19 -35 -34 -28 -35 6 0 15 5 18 10 3 6 11 10 17 10
7 0 9 -24 6 -66 -4 -58 -7 -69 -31 -86 -15 -11 -39 -43 -53 -70 -21 -41 -28
-47 -40 -38 -16 14 -20 110 -5 110 5 0 11 -6 14 -12 2 -7 8 4 12 24 4 21 13
42 21 49 15 12 19 39 6 39 -8 0 -47 -47 -69 -85 -19 -31 -15 -96 7 -132 20
-34 50 -44 50 -18 0 23 16 18 34 -10 9 -14 22 -25 29 -25 6 0 25 35 40 78 16
42 32 84 36 92 5 9 3 20 -5 28 -16 15 -14 19 -33 -63 -20 -82 -47 -100 -53
-35 -3 32 1 45 19 62 13 12 23 28 23 35 0 8 6 16 14 19 8 3 12 13 11 22 -16
79 -15 83 5 77 18 -6 18 -4 9 24 -6 17 -12 31 -12 31 -1 0 -20 -16 -42 -35z
m-45 -241 c0 -8 -5 -12 -10 -9 -6 4 -8 11 -5 16 9 14 15 11 15 -7z"/>
<path d="M9611 1353 c-1 -24 17 -78 24 -71 3 2 -1 24 -9 49 -9 27 -14 36 -15
22z"/>
<path d="M1960 602 c0 -12 19 -26 26 -19 2 2 -2 10 -11 17 -9 8 -15 8 -15 2z"/>
<path d="M8860 170 c0 -5 4 -10 9 -10 6 0 13 5 16 10 3 6 -1 10 -9 10 -9 0
-16 -4 -16 -10z"/>
</g>
</svg>
