<?xml version="1.0" standalone="no"?>
<!DOCTYPE svg PUBLIC "-//W3C//DTD SVG 20010904//EN"
 "http://www.w3.org/TR/2001/REC-SVG-20010904/DTD/svg10.dtd">
<svg version="1.0" xmlns="http://www.w3.org/2000/svg"
 width="1280.000000pt" height="1022.000000pt" viewBox="0 0 1280.000000 1022.000000"
 preserveAspectRatio="xMidYMid meet">
<metadata>
Created by potrace 1.15, written by Peter Selinger 2001-2017
</metadata>
<g transform="translate(0.000000,1022.000000) scale(0.100000,-0.100000)"
fill="#f44336" stroke="none">
<path d="M109 10197 c-24 -13 -57 -43 -74 -66 l-30 -43 -3 -3697 -2 -3698 23
-44 c13 -24 43 -57 66 -74 l43 -30 2674 -3 2674 -2 -2 -463 -3 -462 -95 -7
c-572 -45 -1188 -158 -1600 -292 -357 -117 -566 -238 -630 -366 -45 -90 -19
-216 64 -308 245 -271 1111 -507 2191 -596 409 -34 583 -41 1090 -41 527 0
711 8 1140 46 858 76 1576 240 1940 443 362 203 382 456 50 645 -377 216
-1132 392 -1995 466 -102 8 -213 18 -247 21 l-63 6 0 454 0 454 2674 2 2674 3
43 30 c23 17 53 50 66 74 l23 44 -2 3698 -3 3697 -30 43 c-16 23 -50 53 -74
66 l-44 23 -6247 0 -6247 0 -44 -23z"/>
</g>
</svg>
