<?xml version="1.0" standalone="no"?>
<!DOCTYPE svg PUBLIC "-//W3C//DTD SVG 20010904//EN"
 "http://www.w3.org/TR/2001/REC-SVG-20010904/DTD/svg10.dtd">
<svg version="1.0" xmlns="http://www.w3.org/2000/svg"
 width="1280.000000pt" height="909.000000pt" viewBox="0 0 1280.000000 909.000000"
 preserveAspectRatio="xMidYMid meet">
<metadata>
Created by potrace 1.15, written by Peter Selinger 2001-2017
</metadata>
<g transform="translate(0.000000,909.000000) scale(0.100000,-0.100000)"
fill="#ff9800" stroke="none">
<path d="M6220 9080 c-756 -42 -1395 -132 -2065 -291 -1519 -361 -2544 -932
-2592 -1445 -5 -52 0 -79 30 -180 20 -66 117 -416 216 -779 99 -363 311 -1139
471 -1725 160 -586 359 -1312 441 -1615 83 -302 156 -571 164 -597 l14 -48
-102 -30 c-56 -17 -239 -76 -407 -131 -1050 -344 -1806 -719 -2166 -1074 -253
-250 -290 -466 -111 -645 461 -463 2099 -628 4402 -444 2223 177 4709 689
6390 1314 1087 405 1765 840 1877 1204 173 567 -1124 913 -3212 857 -223 -6
-437 -14 -475 -17 l-71 -6 -37 688 c-21 379 -51 925 -67 1214 -16 289 -52 939
-80 1445 -28 506 -57 1036 -65 1179 -8 142 -15 295 -15 340 0 152 -39 245
-148 348 -78 74 -134 111 -265 173 -271 129 -628 210 -1107 250 -221 18 -803
27 -1020 15z"/>
</g>
</svg>
