<?xml version="1.0" standalone="no"?>
<!DOCTYPE svg PUBLIC "-//W3C//DTD SVG 20010904//EN"
 "http://www.w3.org/TR/2001/REC-SVG-20010904/DTD/svg10.dtd">
<svg version="1.0" xmlns="http://www.w3.org/2000/svg"
 width="1280.000000pt" height="884.000000pt" viewBox="0 0 1280.000000 884.000000"
 preserveAspectRatio="xMidYMid meet">
<metadata>
Created by potrace 1.15, written by Peter Selinger 2001-2017
</metadata>
<g transform="translate(0.000000,884.000000) scale(0.100000,-0.100000)"
fill="#f44336" stroke="none">
<path d="M10885 8798 c4 -16 1 -29 -9 -37 -9 -8 -16 -19 -16 -25 0 -20 -79
-90 -106 -93 -95 -13 -432 -162 -564 -248 -19 -13 -66 -33 -105 -45 -105 -33
-129 -74 -84 -147 31 -50 23 -124 -19 -165 l-30 -31 -203 51 -204 51 -36 -21
c-21 -11 -40 -29 -42 -39 -4 -15 -15 -19 -49 -19 -23 0 -65 -6 -93 -14 -149
-41 -417 -145 -440 -170 -6 -6 -33 -22 -60 -36 -69 -34 -155 -116 -155 -147 0
-40 16 -59 103 -122 69 -50 118 -104 105 -117 -3 -2 -101 5 -268 22 l-75 7 42
-47 c53 -60 61 -91 32 -122 -53 -57 -196 -56 -309 1 -78 39 -195 63 -350 71
l-105 6 -120 -47 c-66 -26 -210 -77 -320 -115 -142 -48 -252 -93 -380 -157
-213 -106 -231 -113 -490 -193 -311 -95 -467 -155 -610 -234 -158 -87 -159
-88 -215 -115 -25 -12 -76 -42 -115 -66 -69 -44 -95 -54 -460 -167 -711 -221
-1214 -384 -1444 -470 l-24 -9 28 -29 c16 -17 34 -30 39 -30 21 -1 123 -154
135 -203 12 -49 6 -163 -9 -172 -8 -5 -200 14 -345 34 -187 26 -449 21 -478
-8 -5 -5 -9 -27 -9 -49 l1 -40 -51 -10 c-35 -7 -115 -7 -242 0 -371 19 -489 1
-647 -103 -41 -27 -80 -49 -85 -49 -25 0 -87 -85 -142 -195 -60 -119 -95 -164
-159 -201 -30 -17 -39 -17 -105 -5 -40 7 -95 17 -123 22 -27 5 -93 14 -145 19
-86 9 -102 8 -155 -10 -32 -11 -77 -20 -100 -20 -31 0 -61 -11 -111 -40 -38
-22 -136 -69 -219 -105 -257 -112 -303 -141 -285 -174 8 -16 5 -20 -23 -25
-18 -4 -88 -9 -156 -13 l-124 -6 26 -23 c26 -22 26 -22 4 -28 -12 -3 -59 -6
-105 -6 l-83 0 23 -30 c24 -31 238 -233 349 -330 96 -84 441 -347 477 -363 13
-6 63 -61 112 -121 142 -178 425 -449 630 -603 296 -222 606 -484 1095 -928
182 -165 290 -253 449 -367 l210 -150 52 12 c62 15 149 9 219 -15 28 -10 108
-31 180 -46 118 -26 147 -29 322 -29 236 0 254 -5 382 -113 93 -78 141 -101
192 -90 23 4 28 10 24 27 -2 11 -7 43 -10 69 l-6 48 28 -7 c103 -22 190 -70
278 -154 77 -73 183 -117 440 -184 192 -51 317 -92 400 -134 94 -46 204 -158
327 -332 138 -194 176 -226 408 -353 l196 -106 103 -10 c57 -6 120 -11 140
-11 l36 1 -44 23 c-24 12 -71 50 -105 83 -154 153 -222 367 -152 474 46 69 93
83 271 83 83 0 200 -4 262 -8 94 -7 134 -5 245 12 73 12 187 26 253 33 66 6
125 12 130 14 16 4 55 125 55 167 0 63 -48 112 -199 203 -81 50 -146 97 -166
121 -17 21 -78 127 -135 234 -88 168 -114 207 -183 283 -59 65 -96 96 -141
119 -97 49 -258 146 -330 201 -37 27 -161 149 -274 271 -319 340 -322 344
-282 315 117 -86 184 -126 560 -332 181 -99 502 -185 776 -207 125 -10 174
-14 584 -45 288 -22 321 -25 340 -35 10 -5 -13 51 -60 143 -131 263 -252 674
-290 984 -25 200 -27 507 -6 611 18 85 81 198 150 271 59 61 225 183 330 240
102 57 231 106 338 130 171 39 272 60 393 81 228 41 457 110 607 185 71 35
201 115 196 120 -2 1 -30 -1 -63 -6 -77 -9 -1032 -9 -985 1 19 4 79 24 134 44
54 20 106 36 116 36 23 0 363 146 500 215 213 107 683 382 782 457 31 24 147
115 256 203 162 130 210 175 258 240 105 141 220 252 242 231 3 -3 0 -6 -7 -6
-7 0 -42 -28 -77 -61 -46 -45 -69 -76 -84 -116 -35 -95 -25 -102 80 -52 128
60 245 168 349 322 44 64 143 275 171 362 31 95 49 130 93 180 54 63 89 81
233 120 146 40 208 67 293 130 33 24 98 70 146 101 47 32 82 61 78 64 -13 11
-596 386 -623 400 -61 33 -502 456 -578 555 -72 95 -491 530 -575 597 -38 30
-38 30 -32 6z"/>
</g>
</svg>
