<?xml version="1.0" standalone="no"?>
<!DOCTYPE svg PUBLIC "-//W3C//DTD SVG 20010904//EN"
 "http://www.w3.org/TR/2001/REC-SVG-20010904/DTD/svg10.dtd">
<svg version="1.0" xmlns="http://www.w3.org/2000/svg"
 width="1280.000000pt" height="827.000000pt" viewBox="0 0 1280.000000 827.000000"
 preserveAspectRatio="xMidYMid meet">
<metadata>
Created by potrace 1.15, written by Peter Selinger 2001-2017
</metadata>
<g transform="translate(0.000000,827.000000) scale(0.100000,-0.100000)"
fill="#f44336" stroke="none">
<path d="M10776 8245 c-4 -14 -23 -44 -43 -66 -38 -42 -36 -55 7 -61 25 -3 25
-3 28 -128 5 -210 -5 -251 -57 -218 -20 12 -51 5 -51 -11 0 -6 15 -18 33 -27
34 -18 33 -19 -25 -29 -31 -5 -38 -10 -38 -29 0 -26 23 -50 62 -65 25 -9 26
-12 16 -48 -22 -82 -113 -193 -159 -193 -18 0 -42 27 -71 79 -21 38 -48 41
-48 5 0 -14 -5 -35 -11 -47 l-12 -21 -8 23 c-5 12 -13 20 -18 16 -11 -6 -10
-135 1 -135 5 0 8 5 8 10 0 6 4 10 9 10 5 0 7 -26 4 -58 l-5 -59 28 4 c41 6
93 -32 126 -92 15 -28 28 -53 28 -56 0 -9 -122 -29 -177 -29 -54 0 -101 21
-202 90 -91 61 -181 103 -232 108 -57 5 -104 -9 -192 -60 -93 -54 -139 -69
-178 -58 -24 7 -56 3 -133 -17 -133 -35 -146 -32 -182 52 -16 36 -32 65 -36
65 -14 0 -36 -45 -52 -104 -8 -32 -19 -63 -25 -69 -15 -15 -24 55 -18 142 6
93 35 185 113 359 58 131 60 133 99 143 43 12 65 26 65 41 0 13 -36 5 -222
-48 -87 -25 -188 -51 -225 -59 -161 -34 -276 -5 -349 90 l-25 33 37 89 c20 48
42 108 50 133 13 42 12 46 -12 78 -15 20 -32 31 -40 28 -16 -6 -19 10 -4 19
16 10 12 19 -16 32 -35 16 -49 8 -73 -43 -12 -24 -28 -44 -36 -44 -19 0 -19
14 1 31 32 27 59 109 36 109 -12 0 -36 -30 -50 -62 -6 -16 -18 -28 -26 -28
-27 0 -74 -50 -90 -97 -9 -27 -16 -80 -16 -125 0 -69 2 -78 19 -78 54 0 99
-84 86 -163 l-7 -40 -14 32 -14 33 -24 -20 c-94 -73 -160 -231 -181 -435 -6
-49 -10 -59 -33 -71 -79 -41 -106 -109 -137 -339 -9 -61 -23 -137 -31 -167
-16 -57 -57 -130 -74 -130 -5 0 -25 14 -45 31 -33 29 -35 30 -35 10 0 -12 7
-38 15 -58 18 -43 18 -43 1 -43 -8 0 -33 -9 -57 -19 -40 -18 -45 -19 -61 -4
-10 9 -18 24 -18 33 0 9 -3 20 -6 23 -10 9 -44 -12 -44 -27 0 -7 -8 -20 -18
-29 -19 -17 -53 -13 -101 12 -18 10 -23 8 -33 -14 -6 -14 -20 -25 -30 -25 -17
0 -18 -1 -2 -25 9 -14 37 -38 62 -52 25 -15 40 -29 34 -31 -16 -5 -15 -32 1
-33 6 -1 17 -2 22 -4 6 -1 16 -3 23 -3 28 -4 9 -22 -23 -22 -24 0 -35 -5 -35
-15 0 -9 9 -15 24 -15 74 0 93 -35 55 -97 -12 -18 -19 -43 -16 -54 8 -29 -26
-42 -130 -49 -69 -5 -97 -11 -113 -25 -26 -24 -25 -29 6 -43 16 -8 53 -10 107
-6 l82 7 23 -50 c12 -28 59 -90 108 -142 85 -92 115 -141 158 -262 9 -26 34
-64 56 -86 l39 -38 -13 -46 c-8 -26 -17 -73 -21 -105 -10 -91 -12 -94 -45 -88
l-28 6 5 -81 c6 -77 5 -81 -15 -81 -38 0 -51 -10 -43 -33 5 -12 11 -67 14
-122 l6 -100 -97 -83 -98 -83 39 -42 c21 -23 64 -87 94 -142 101 -180 118
-207 161 -253 l44 -45 -31 -166 c-47 -256 -49 -321 -11 -321 33 0 39 -123 17
-307 -11 -86 -11 -103 0 -103 8 0 16 7 19 15 4 8 13 15 21 15 13 0 15 -11 10
-67 -12 -128 -20 -331 -14 -347 5 -12 12 -14 31 -6 17 6 27 5 33 -3 5 -7 6
-68 2 -137 -4 -69 -8 -164 -8 -211 l-1 -87 29 -5 c39 -8 51 -50 51 -178 0 -75
3 -98 14 -102 33 -13 48 -57 56 -160 11 -140 15 -151 52 -163 40 -12 56 -54
97 -245 21 -97 42 -167 65 -214 19 -38 42 -105 51 -148 22 -103 75 -205 145
-280 56 -61 57 -63 74 -159 10 -53 23 -102 30 -107 31 -25 143 -43 285 -44
131 -2 149 0 176 18 26 18 46 20 210 21 182 1 222 7 318 47 21 9 55 29 75 45
24 18 60 33 102 41 204 39 340 177 340 344 0 58 -4 74 -25 101 -31 41 -42 98
-54 276 -8 126 -11 143 -56 260 -50 134 -64 210 -47 259 10 27 7 40 -18 97
-30 65 -30 66 -12 92 11 15 31 53 45 86 25 55 29 58 54 51 79 -19 90 -18 97 9
5 19 16 28 48 37 27 7 48 8 58 2 25 -16 56 -68 95 -160 49 -117 76 -153 119
-153 30 0 34 -4 46 -42 19 -66 60 -141 160 -293 72 -111 98 -142 122 -150 35
-11 40 -18 62 -97 17 -57 35 -88 139 -231 31 -43 64 -103 74 -133 l17 -54 64
-20 c77 -24 212 -27 291 -5 85 22 161 64 220 122 46 44 61 53 91 53 136 0 295
91 351 202 29 56 36 156 15 223 -8 27 -14 51 -12 53 2 2 37 8 78 14 40 5 74
10 75 11 0 1 33 66 71 144 124 250 121 296 -24 438 -99 96 -124 134 -124 188
0 23 -8 41 -25 57 -14 13 -25 29 -25 35 0 6 -12 35 -26 64 l-26 52 21 23 c11
12 21 27 21 32 0 5 -22 27 -50 49 -27 21 -60 58 -72 82 -20 37 -21 46 -10 75
6 17 11 32 9 33 -1 0 -21 14 -45 29 -48 33 -96 94 -137 175 l-27 55 21 17 22
18 -34 53 c-87 135 -197 402 -197 476 0 33 52 87 148 152 34 24 71 58 82 75
24 39 26 101 6 171 -27 91 -28 126 -7 157 20 31 96 97 142 124 24 14 29 24 29
56 0 64 31 103 44 53 8 -34 35 -41 46 -12 9 25 55 66 74 66 19 0 86 50 86 64
0 19 -53 36 -110 36 -42 0 -49 3 -54 24 -7 28 -35 42 -41 21 -3 -8 -7 -22 -10
-31 -8 -24 -72 -13 -150 25 -72 36 -169 132 -178 178 -6 29 13 70 38 79 7 3
68 -8 135 -25 67 -17 145 -31 174 -31 57 0 126 16 126 30 0 11 -49 50 -64 50
-6 0 -22 7 -35 17 l-24 16 43 16 c54 20 58 31 21 53 -40 22 -57 59 -92 195
-16 63 -36 128 -45 145 -13 25 -14 32 -2 39 19 13 24 11 57 -17 l31 -26 19 23
c17 22 21 22 87 12 79 -12 135 -1 100 21 -43 25 -86 69 -86 87 0 12 13 26 35
36 19 9 35 22 35 29 0 9 11 11 36 7 l37 -6 -7 55 -7 56 91 16 c50 10 138 20
195 23 l105 6 -22 39 c-48 85 -164 166 -289 202 -86 25 -155 36 -294 47 -141
11 -160 18 -195 74 -30 49 -22 62 47 70 112 12 116 14 109 46 -7 36 7 44 38
24 27 -18 46 -13 46 10 0 24 42 44 105 50 88 9 105 14 105 30 0 28 -45 40
-180 46 -74 3 -145 9 -157 14 -19 6 -23 4 -23 -13 0 -23 -19 -41 -21 -20 -1 7
-2 20 -3 28 -2 23 -31 18 -34 -6 -7 -47 -62 -69 -62 -25 0 35 -14 31 -34 -11
-39 -79 -43 -72 -87 162 -26 138 -51 210 -94 270 -27 38 -30 50 -22 73 5 16 6
44 3 63 -6 28 -11 34 -31 34 -18 0 -25 -5 -25 -19 0 -34 -19 -33 -34 1 -7 18
-39 66 -70 106 -31 41 -56 77 -56 82 0 4 7 13 15 20 14 12 32 11 98 -6 24 -6
27 -4 27 18 0 29 19 48 80 78 54 27 90 58 90 78 0 12 -15 14 -92 9 -51 -3
-102 -9 -114 -12 -17 -5 -25 1 -43 30 l-21 36 -26 -20 c-15 -12 -37 -21 -50
-21 -22 0 -24 -3 -18 -37 6 -38 6 -38 -51 -66 -32 -15 -58 -27 -59 -25 -36 55
-86 114 -123 144 -27 21 -78 67 -114 101 -55 53 -65 68 -61 89 3 16 -2 33 -16
47 -74 82 -122 219 -130 370 -4 93 -7 107 -22 107 -27 0 -40 22 -50 86 -6 33
-10 60 -10 61 0 6 -33 33 -40 33 -4 0 -11 -11 -14 -25z m-2223 -270 c57 -16
58 -17 43 -38 -27 -37 -56 -95 -56 -112 0 -8 -6 -15 -14 -15 -9 0 -12 7 -9 21
5 19 4 20 -17 9 -12 -6 -33 -10 -46 -7 -13 2 -24 -1 -24 -6 0 -7 -4 -7 -11 0
-9 9 -9 23 0 57 6 25 11 60 11 80 0 19 3 41 6 50 5 14 9 14 33 -3 14 -11 52
-27 84 -36z m2264 -570 c-5 -167 -17 -256 -38 -279 -6 -6 -9 -3 -9 7 0 9 -4
17 -10 17 -5 0 -10 -9 -10 -19 0 -29 -11 -51 -24 -51 -26 0 -189 136 -198 166
-2 6 25 34 59 62 74 62 151 161 196 251 23 47 33 60 36 46 2 -11 1 -101 -2
-200z m-2226 141 c49 -27 135 -46 218 -47 31 0 75 -4 99 -7 l42 -7 -64 -47
c-35 -27 -67 -48 -70 -48 -15 0 -4 19 14 25 11 3 20 11 20 16 0 15 -60 -19
-115 -66 -53 -44 -105 -75 -128 -75 -7 0 -34 -19 -58 -43 -25 -24 -72 -58
-105 -76 -32 -19 -70 -41 -83 -50 l-24 -15 7 74 c6 72 47 254 59 267 4 3 22
-6 41 -21 32 -24 36 -25 45 -9 5 10 12 41 16 68 8 54 21 85 34 85 5 0 28 -11
52 -24z m173 -688 c-16 -18 -40 -54 -53 -80 -14 -25 -33 -57 -42 -70 -18 -23
-18 -23 -6 12 19 56 100 169 121 170 6 0 -3 -15 -20 -32z m-638 -397 c-3 -31
-8 -81 -11 -111 -6 -51 -4 -59 30 -115 42 -68 74 -134 75 -152 0 -8 -14 -13
-37 -13 -21 -1 -72 -14 -113 -31 -99 -40 -165 -47 -214 -24 -46 22 -52 35 -39
91 7 31 7 44 0 44 -7 0 -7 4 1 12 18 18 15 28 -10 29 -21 1 -21 2 5 12 39 16
35 37 -8 37 -54 0 -42 16 28 35 158 44 227 111 274 265 10 35 25 -24 19 -79z
m702 4 c-3 -3 -9 2 -12 12 -6 14 -5 15 5 6 7 -7 10 -15 7 -18z m2502 -604 c0
-11 -4 -23 -10 -26 -6 -4 -10 5 -10 19 0 14 5 26 10 26 6 0 10 -9 10 -19z
m1065 -11 c-27 -4 -68 -13 -91 -19 l-41 -11 10 -39 c11 -42 -1 -91 -23 -91
-12 0 -44 69 -36 78 3 2 8 -3 12 -12 10 -26 26 -18 22 12 -4 35 -28 35 -48 -1
-14 -25 -13 -30 3 -58 20 -37 22 -49 4 -49 -25 0 -50 37 -43 64 6 23 3 25 -36
28 -24 2 -43 8 -42 13 0 6 36 29 80 51 77 40 81 41 179 41 82 0 91 -1 50 -7z
m-3645 -30 c0 -11 -4 -20 -10 -20 -5 0 -17 -14 -25 -31 -26 -49 -28 -27 -3 25
23 49 38 59 38 26z m2628 -116 c33 -43 40 -60 21 -49 -15 10 -69 86 -69 99 0
12 3 8 48 -50z m-3452 -20 c21 -15 62 -47 89 -73 28 -26 61 -54 74 -63 l23
-17 -43 -41 -44 -42 -28 34 c-34 40 -132 228 -119 228 5 0 27 -12 48 -26z
m3693 -95 c42 -23 75 -74 85 -129 l6 -35 -15 39 c-32 82 -95 136 -162 136 -15
0 -35 5 -43 11 -29 21 89 1 129 -22z m-3577 -1033 c28 -43 76 -104 108 -137
l57 -58 -29 -68 c-16 -37 -35 -91 -44 -120 -15 -51 -16 -52 -47 -46 -51 9
-104 40 -130 75 -14 18 -46 80 -71 137 -25 58 -59 121 -75 142 l-30 37 62 22
c73 27 117 67 117 107 1 27 1 27 16 8 8 -11 38 -55 66 -99z m3776 -557 c12
-19 7 -27 -60 -94 -58 -57 -85 -76 -123 -88 -28 -8 -51 -10 -53 -6 -2 5 -10 9
-17 9 -14 0 -29 39 -40 101 l-7 36 49 7 c27 3 84 17 128 30 101 30 107 30 123
5z m-3308 -2714 c0 -8 -7 -15 -15 -15 -8 0 -15 7 -15 15 0 8 7 15 15 15 8 0
15 -7 15 -15z m811 -662 c13 -16 12 -17 -3 -4 -10 7 -18 15 -18 17 0 8 8 3 21
-13z"/>
<path d="M2118 7629 c-38 -36 -68 -72 -68 -78 0 -6 12 -16 26 -21 19 -8 24
-15 19 -28 -3 -9 -29 -87 -57 -172 -58 -177 -115 -297 -163 -339 -18 -16 -55
-36 -81 -46 -27 -9 -59 -21 -71 -25 -12 -5 -50 -50 -85 -100 l-63 -91 -45 6
c-66 9 -78 14 -85 34 -5 16 -22 20 -120 26 -124 8 -203 1 -232 -20 -17 -13
-17 -14 0 -33 10 -11 38 -25 62 -32 28 -8 60 -28 88 -55 27 -27 59 -47 86 -55
48 -13 48 -21 3 -100 -14 -25 -39 -70 -55 -100 -17 -30 -32 -57 -34 -60 -2 -2
-18 11 -36 30 l-32 34 -8 -69 c-14 -131 -50 -225 -114 -296 l-36 -39 7 -79 c9
-102 1 -145 -31 -166 -24 -16 -26 -16 -40 4 -8 13 -25 21 -42 21 -15 0 -32 5
-39 12 -9 9 -16 3 -28 -30 -9 -23 -21 -39 -25 -36 -5 2 -4 16 1 30 18 47 13
57 -22 49 -18 -4 -43 -9 -56 -12 -18 -4 -25 0 -29 16 -6 25 -2 24 -44 7 -19
-7 -76 -16 -128 -19 -70 -4 -101 -11 -120 -25 -53 -40 -37 -50 92 -61 48 -5
90 -11 94 -14 3 -4 0 -19 -7 -35 -8 -15 -15 -29 -16 -32 -2 -3 1 -12 6 -20 6
-10 15 -6 39 20 28 31 32 32 48 18 34 -30 63 -40 78 -28 10 8 16 7 23 -6 5 -9
31 -28 57 -43 72 -39 77 -53 35 -96 -46 -48 -102 -62 -277 -70 -162 -7 -247
-26 -368 -85 -88 -42 -220 -134 -220 -152 0 -28 66 -50 195 -63 158 -17 173
-23 164 -71 -6 -34 -6 -35 20 -23 14 7 26 16 26 21 0 5 5 6 11 3 7 -5 5 -15
-6 -32 -9 -14 -15 -26 -13 -27 2 -1 16 -7 31 -14 24 -11 28 -17 26 -47 -4 -44
4 -51 41 -35 24 10 33 10 45 0 23 -19 18 -59 -11 -83 -79 -66 -104 -91 -104
-103 0 -24 41 -15 83 18 48 39 90 41 162 10 28 -11 58 -23 68 -26 17 -5 16 -8
-4 -35 -21 -28 -21 -35 -12 -113 13 -108 3 -141 -57 -185 -89 -67 -102 -78
-103 -98 -2 -21 8 -22 50 -9 13 3 23 2 23 -4 0 -5 -9 -12 -20 -15 -11 -3 -20
-13 -20 -22 0 -14 6 -17 35 -12 19 3 35 3 35 0 0 -3 -13 -18 -30 -33 -16 -15
-30 -33 -30 -39 0 -19 43 -12 68 12 l24 22 -7 -24 c-7 -22 -5 -23 16 -17 131
36 254 65 300 71 l57 7 7 -32 c7 -33 0 -107 -15 -146 -7 -18 -29 -29 -108 -53
-55 -17 -112 -41 -126 -52 -23 -18 -32 -20 -52 -10 -14 6 -43 8 -69 4 -29 -3
-50 -1 -59 6 -12 10 -26 5 -75 -29 -34 -22 -61 -46 -61 -52 0 -5 14 -26 30
-45 19 -22 30 -45 30 -64 l0 -31 31 26 c26 22 40 26 95 26 63 0 64 0 64 -27 1
-64 37 -115 148 -211 l62 -53 -18 -32 c-14 -26 -17 -60 -19 -177 -1 -130 -4
-153 -28 -220 -25 -70 -27 -83 -22 -190 4 -92 11 -133 35 -207 33 -98 64 -165
106 -226 31 -45 32 -54 6 -87 -25 -32 -25 -57 0 -115 30 -70 112 -149 256
-246 79 -53 144 -105 165 -131 43 -55 52 -62 120 -97 160 -84 381 -98 562 -35
41 14 102 27 142 29 86 4 127 19 230 80 96 57 173 85 232 85 58 0 66 -21 24
-64 -40 -41 -40 -69 2 -99 40 -31 111 -67 131 -67 7 0 40 14 71 30 31 17 64
30 73 30 9 0 37 -21 63 -46 38 -37 60 -50 115 -65 92 -25 247 -25 390 1 214
38 301 77 392 176 48 50 77 71 154 108 113 54 165 105 213 209 17 40 35 79 38
89 5 14 12 14 72 -8 97 -35 232 -54 385 -53 178 0 219 8 283 52 37 26 82 44
152 62 73 19 116 36 158 65 32 22 67 40 77 40 28 0 70 18 112 47 53 36 144
151 153 193 12 57 29 80 124 175 50 49 91 95 91 102 0 21 -18 24 -60 7 -22 -9
-43 -14 -46 -11 -3 2 19 22 48 43 29 20 61 47 70 58 25 30 22 79 -8 139 -25
49 -26 56 -19 142 14 160 11 167 -122 307 -85 91 -123 149 -123 192 0 28 -55
67 -165 117 -82 37 -162 92 -170 119 -4 12 11 44 45 95 56 86 73 138 68 202
-4 51 -11 47 132 68 127 19 197 39 235 69 33 26 30 46 -12 73 -21 14 -46 18
-113 17 -47 0 -102 -6 -123 -12 -69 -19 -38 10 60 58 51 24 95 50 98 58 8 21
-12 50 -46 68 -38 19 -60 12 -209 -75 -58 -34 -108 -61 -112 -61 -13 0 29 62
137 206 58 76 108 149 111 162 7 26 -19 62 -45 62 -19 0 -82 -40 -125 -79 -16
-14 -67 -78 -114 -141 -46 -63 -96 -127 -110 -142 l-25 -27 -23 24 -23 25 53
77 c29 43 88 143 131 223 84 156 170 293 204 324 32 29 26 60 -19 96 -38 30
-40 34 -40 89 0 76 13 112 72 196 44 63 47 70 31 80 -10 5 -72 10 -138 11
-124 1 -154 8 -205 46 -69 51 -105 138 -149 362 -36 182 -71 268 -129 315 -20
17 -42 31 -50 31 -18 0 -28 31 -77 241 -24 103 -57 220 -73 260 -29 74 -30 74
-67 74 -37 0 -38 1 -52 50 -32 109 -30 118 24 161 26 21 51 44 55 49 16 21 8
169 -11 211 -34 75 -119 119 -216 112 -50 -3 -50 -3 -53 -39 -2 -23 -12 -45
-28 -59 -13 -13 -24 -27 -24 -31 0 -4 23 -34 50 -65 49 -56 61 -89 39 -111 -6
-6 -17 -54 -24 -108 -17 -120 -28 -138 -95 -153 -121 -28 -229 -12 -425 62
-114 44 -262 82 -273 72 -2 -3 33 -62 78 -132 100 -153 145 -241 165 -325 17
-75 18 -184 1 -254 -11 -47 -12 -49 -24 -27 -7 12 -15 51 -19 87 -3 36 -11 70
-18 75 -21 17 -43 1 -57 -41 l-13 -40 -180 -4 c-102 -3 -206 0 -240 6 -34 6
-111 34 -179 66 -105 50 -127 57 -197 61 l-78 5 -63 -57 c-35 -31 -100 -75
-145 -98 -68 -34 -95 -42 -158 -46 -73 -5 -159 10 -171 30 -3 5 22 41 55 80
70 83 91 122 91 173 0 76 -64 133 -100 90 -17 -20 -26 -19 -62 7 -47 33 -104
131 -139 238 l-33 98 30 26 c21 19 25 25 12 26 -27 0 -38 56 -38 198 0 145
-11 200 -44 230 -21 18 -22 18 -88 -49z m2643 -110 c8 -17 8 -20 -1 -14 -8 5
-10 2 -7 -11 18 -61 17 -110 -2 -141 -23 -37 -36 -40 -63 -16 -17 15 -18 15
-18 -10 0 -15 -4 -27 -8 -27 -9 0 -82 148 -82 166 0 5 24 15 53 22 28 6 63 21
77 31 32 25 37 25 51 0z m-2440 -665 c27 -34 74 -78 104 -100 62 -42 62 -40
10 -119 -34 -50 -76 -80 -106 -73 -8 2 -15 -7 -17 -19 -9 -60 -90 9 -117 99
-15 50 -34 271 -35 403 l0 60 57 -95 c31 -52 78 -123 104 -156z m2347 144 c6
-18 13 -55 17 -81 6 -47 8 -49 33 -42 15 3 32 13 38 21 10 13 15 11 32 -11 12
-15 26 -41 31 -58 14 -40 49 -278 42 -275 -3 2 -40 19 -82 39 -79 38 -154 97
-164 130 -4 12 -15 19 -31 19 -39 0 -85 23 -149 77 -99 81 -131 99 -119 68 9
-22 1 -19 -61 24 l-56 40 38 10 c21 6 75 11 121 11 48 0 82 4 82 10 0 6 17 10
38 10 60 1 116 17 131 39 18 27 46 13 59 -31z m460 -1133 c59 -124 179 -217
302 -232 60 -7 71 -33 15 -33 -38 0 -40 -2 -26 -28 5 -10 11 -55 12 -102 l4
-85 -34 -22 c-52 -35 -121 -31 -234 13 -51 20 -109 37 -129 37 -35 2 -38 4
-38 32 0 18 15 56 36 91 83 135 78 123 66 158 -11 29 -18 236 -8 236 2 0 18
-29 34 -65z m-4457 -712 c30 -17 70 -35 87 -41 18 -6 32 -18 32 -26 0 -18 -33
-30 -60 -21 -17 5 -20 2 -20 -25 0 -20 -9 -40 -26 -57 -37 -37 -52 -17 -25 35
12 23 21 43 21 45 0 2 -11 16 -25 31 l-25 27 -12 -26 c-13 -30 -5 -43 17 -25
9 8 15 9 15 2 0 -20 -23 -61 -36 -66 -29 -11 -46 73 -24 115 9 16 7 21 -17 30
-15 6 -59 13 -96 16 -101 9 -61 25 48 20 75 -4 99 -10 146 -34z m4654 -224
c-34 -67 -115 -189 -126 -189 -4 0 -20 15 -34 34 -15 19 -36 36 -48 38 -23 3
-10 15 163 160 60 51 65 53 68 32 2 -12 -9 -46 -23 -75z m-115 -657 c0 -36 -3
-43 -16 -38 -9 3 -20 6 -26 6 -11 0 -4 82 8 102 13 20 34 -25 34 -70z m-1273
-1897 c216 -30 393 -75 393 -101 0 -23 -58 -134 -100 -190 -21 -28 -60 -65
-87 -82 -45 -29 -144 -62 -185 -62 -21 0 -44 68 -28 84 16 16 12 26 -12 27
-18 1 -16 3 10 11 38 13 40 21 10 42 -48 34 -91 11 -103 -55 -6 -33 -3 -40 30
-73 32 -32 36 -41 30 -69 -23 -106 -127 -171 -315 -197 -157 -22 -366 10 -463
70 -39 24 -59 30 -107 30 -52 0 -58 2 -53 19 3 10 -3 31 -12 45 -14 21 -15 27
-4 31 8 2 33 11 57 20 48 16 102 51 102 66 0 12 -205 11 -330 -1 -52 -5 -96
-7 -98 -5 -2 2 19 36 46 77 27 40 57 88 66 106 21 40 36 41 36 2 l0 -31 24 18
c37 28 72 87 92 158 18 61 21 65 49 66 16 1 80 5 140 9 178 13 684 4 812 -15z"/>
<path d="M12730 2448 c0 -45 34 -236 44 -245 2 -2 9 23 16 56 9 45 10 74 2
120 -21 117 -62 162 -62 69z"/>
<path d="M12560 2421 c0 -5 5 -22 10 -37 6 -14 27 -99 46 -188 20 -88 40 -167
44 -175 5 -9 10 3 14 33 4 25 12 46 18 46 6 0 7 7 3 18 -9 19 -28 98 -45 185
-8 39 -22 69 -42 93 -30 33 -48 43 -48 25z"/>
<path d="M8226 1615 c18 -211 48 -385 89 -509 28 -85 103 -241 112 -232 3 3 1
11 -4 18 -10 14 -39 90 -66 173 -21 63 -28 98 -77 355 -43 226 -63 296 -54
195z"/>
<path d="M10366 1047 c3 -64 2 -122 -1 -127 -4 -7 -13 -6 -26 0 -18 10 -19 8
-14 -13 11 -43 -14 -179 -45 -244 -40 -87 -73 -127 -160 -196 -68 -55 -72 -64
-16 -41 15 5 17 4 11 -6 -15 -25 57 25 110 76 91 87 154 206 170 321 6 48 -2
147 -25 293 -6 41 -7 24 -4 -63z"/>
<path d="M8102 1046 c-1 -33 4 -60 13 -72 14 -18 14 -18 15 5 0 19 3 21 15 11
12 -10 13 -7 6 17 -9 29 -39 93 -44 93 -2 0 -4 -24 -5 -54z"/>
<path d="M11635 851 c-27 -10 -64 -25 -81 -34 -17 -9 -44 -17 -60 -19 -23 -2
-28 1 -26 15 3 17 1 17 -25 3 -23 -11 -54 -13 -151 -9 -107 5 -122 4 -128 -11
-10 -26 22 -64 63 -75 21 -6 80 -11 131 -11 50 0 92 -3 92 -7 0 -4 -15 -22
-32 -40 -38 -39 -32 -62 21 -75 69 -18 161 38 161 98 0 19 -6 26 -31 31 -30 6
-30 6 32 37 69 34 107 74 93 99 -8 14 -14 14 -59 -2z m55 -6 c0 -2 -10 -10
-22 -16 -21 -11 -22 -11 -9 4 13 16 31 23 31 12z"/>
<path d="M10465 613 c-5 -12 -9 -14 -12 -5 -8 21 -23 13 -23 -14 0 -14 -16
-58 -35 -97 -19 -39 -33 -72 -32 -74 14 -13 117 143 117 178 0 33 -5 37 -15
12z"/>
<path d="M8567 567 c-4 -10 -7 -45 -7 -76 0 -75 44 -167 104 -215 84 -69 156
-106 205 -105 25 1 37 3 26 6 -35 9 -41 23 -9 23 28 0 101 36 92 46 -3 2 -17
0 -32 -6 -43 -16 -121 -12 -179 10 -98 37 -168 139 -184 270 -6 43 -11 59 -16
47z"/>
<path d="M8475 73 c18 -53 73 -91 97 -68 7 7 -87 105 -100 105 -6 0 -4 -15 3
-37z"/>
</g>
</svg>
