<?xml version="1.0" standalone="no"?>
<!DOCTYPE svg PUBLIC "-//W3C//DTD SVG 20010904//EN"
 "http://www.w3.org/TR/2001/REC-SVG-20010904/DTD/svg10.dtd">
<svg version="1.0" xmlns="http://www.w3.org/2000/svg"
 width="866.000000pt" height="1280.000000pt" viewBox="0 0 866.000000 1280.000000"
 preserveAspectRatio="xMidYMid meet">
<metadata>
Created by potrace 1.15, written by Peter Selinger 2001-2017
</metadata>
<g transform="translate(0.000000,1280.000000) scale(0.100000,-0.100000)"
fill="#ff9800" stroke="none">
<path d="M2464 11719 c-17 -22 -34 -126 -35 -217 -1 -111 26 -156 137 -228
155 -102 150 -95 235 -264 107 -213 131 -289 173 -550 35 -219 40 -310 40
-625 0 -307 -5 -393 -39 -651 -15 -112 -108 -420 -157 -518 -45 -90 -117 -156
-213 -195 -44 -18 -105 -47 -135 -63 -30 -17 -95 -51 -145 -77 -82 -43 -144
-83 -305 -196 -55 -38 -130 -95 -140 -105 -3 -3 -34 -29 -70 -59 -83 -69 -384
-370 -436 -436 -21 -27 -42 -52 -45 -55 -17 -16 -137 -182 -192 -267 -171
-263 -259 -487 -331 -843 -24 -119 -38 -208 -68 -420 -25 -184 -15 -619 23
-915 64 -505 188 -848 429 -1190 27 -38 54 -77 60 -85 6 -8 37 -53 70 -100 33
-47 65 -93 72 -103 7 -11 29 -41 48 -68 19 -27 58 -80 85 -119 28 -39 55 -77
60 -83 6 -7 44 -59 85 -117 41 -58 78 -109 83 -115 4 -5 34 -47 67 -92 33 -46
86 -119 118 -162 31 -43 64 -89 72 -101 8 -12 31 -44 50 -70 19 -26 42 -58 50
-70 8 -12 31 -44 50 -71 219 -304 492 -718 639 -969 111 -188 128 -219 155
-276 15 -33 37 -66 49 -73 95 -60 1289 -116 1954 -92 318 11 490 23 583 41
186 35 166 26 207 94 20 34 53 84 72 111 19 28 127 187 238 354 182 271 318
467 333 481 4 3 35 43 70 90 64 85 299 381 310 390 3 3 21 25 40 50 19 25 40
51 47 58 7 7 29 34 50 60 21 26 40 49 43 52 3 3 25 30 50 60 25 30 47 57 50
60 3 3 22 26 43 52 21 26 43 53 50 60 7 7 28 33 47 58 19 25 37 47 40 50 3 3
36 43 74 90 37 47 73 92 79 100 7 8 23 31 37 50 13 19 27 37 30 40 19 16 175
260 221 345 78 144 116 236 149 355 90 329 108 570 112 1450 l3 605 -52 156
c-155 461 -316 757 -654 1199 -48 63 -96 124 -106 135 -10 12 -38 45 -63 75
-138 168 -361 388 -530 523 -151 121 -162 131 -204 175 -23 25 -46 50 -52 56
-52 55 -161 258 -198 368 -47 142 -78 302 -95 499 -14 144 -14 232 -1 434 6
88 15 237 21 330 26 410 81 671 188 900 36 76 63 109 123 147 45 29 77 70 108
134 37 77 41 169 10 261 l-21 60 -197 8 c-108 4 -237 6 -287 4 -139 -6 -502
-4 -1455 9 -1949 26 -1994 26 -2006 11z"/>
</g>
</svg>
